<svg width="54" height="70" viewBox="0 0 54 70" fill="none" xmlns="http://www.w3.org/2000/svg">
<path d="M18.1033 42.2415V46.1747C18.1081 46.7842 17.6568 47.3032 17.0486 47.3817L7.40551 48.6839C3.18022 49.2089 -0.0036882 52.8175 3.20655e-06 57.0742V70H2.41377V57.073C2.41131 54.0315 4.68508 51.4549 7.71572 51.0772L17.366 49.7737C19.1788 49.5384 20.533 47.9815 20.5172 46.1639V42.2415H18.1033V42.2415Z" fill="url(#paint0_linear)"/>
<path d="M45.7099 48.685L36.0499 47.3815C35.4452 47.3018 34.9939 46.7841 34.9999 46.1638V42.2413H32.5861V46.1529C32.5704 47.9813 33.9246 49.5382 35.7313 49.7736L45.3998 51.0783C48.4183 51.4548 50.692 54.0315 50.6896 57.0741V70H53.1033V57.0753C53.1069 52.8175 49.9231 49.21 45.7099 48.685Z" fill="url(#paint1_linear)"/>
<path d="M39.8274 19.3103H38.6205V21.7241H39.8274C41.1587 21.7241 42.2412 22.8066 42.2412 24.1378C42.2412 25.4691 41.1587 26.5516 39.8274 26.5516H38.6205V28.9654H39.8274C42.4899 28.9654 44.655 26.8002 44.655 24.1378C44.6551 21.4755 42.4899 19.3103 39.8274 19.3103Z" fill="url(#paint2_linear)"/>
<path d="M13.2758 21.7242H14.4828V19.3104H13.2758C10.6134 19.3104 8.44827 21.4756 8.44827 24.138C8.44827 26.8004 10.6135 28.9655 13.2758 28.9655H14.4828V26.5517H13.2758C11.9446 26.5517 10.862 25.4692 10.862 24.138C10.8619 22.8067 11.9446 21.7242 13.2758 21.7242Z" fill="url(#paint3_linear)"/>
<path d="M36.3058 47.8003L35.5334 49.5986C33.9909 53.1938 30.4681 55.5171 26.5564 55.5171C26.5528 55.5171 26.5492 55.5171 26.5456 55.5171C22.6341 55.5171 19.1123 53.1938 17.5711 49.5986L16.7986 47.8003L14.5804 48.7525L15.3528 50.5496C17.2743 55.0344 21.6661 57.931 26.5444 57.931C26.5479 57.931 26.5528 57.931 26.5576 57.931C31.4347 57.931 35.8291 55.0345 37.7516 50.5508L38.5241 48.7525L36.3058 47.8003Z" fill="url(#paint4_linear)"/>
<path d="M25.5041 27.8069L26.5408 19.5084L24.1463 19.2091L22.9394 28.8643C22.8971 29.2083 23.0033 29.5535 23.2326 29.8129C23.4619 30.0724 23.7914 30.2208 24.1378 30.2208H27.7586V27.8071H25.5041V27.8069Z" fill="url(#paint5_linear)"/>
<path d="M31.7389 30.52C30.3751 31.8645 28.6069 32.5778 26.6481 32.5863H22.9309V35H26.6397C26.6614 35 26.6831 35 26.7049 35C29.2406 35 31.6278 34.02 33.4333 32.2386L31.7389 30.52Z" fill="url(#paint6_linear)"/>
<path d="M38.5699 10.862V32.3435C38.5843 33.822 38.0558 35.251 37.0829 36.3661L31.8715 42.3258C31.1847 43.1078 30.1939 43.5556 29.1572 43.5568H23.8964C22.8572 43.5556 21.8676 43.1078 21.1833 42.3281L15.9708 36.3673C14.998 35.2509 14.4693 33.822 14.4827 32.3326V10.8632C14.484 10.15 14.5732 9.43549 14.747 8.74274L12.4068 8.15253C12.1835 9.03723 12.0701 9.94833 12.0688 10.862V32.323C12.0508 34.3928 12.7906 36.3938 14.1531 37.9556L19.3693 43.9201C20.5135 45.2223 22.1633 45.9693 23.8964 45.9706H29.1596C30.8904 45.9693 32.5401 45.2223 33.6854 43.9164L38.9004 37.9531C40.263 36.3914 41.0029 34.3916 40.9835 32.3326V10.862H38.5699Z" fill="url(#paint7_linear)"/>
<path d="M19.3102 24.1862C20.6433 24.1862 21.7239 23.1056 21.7239 21.7725C21.7239 20.4394 20.6433 19.3587 19.3102 19.3587C17.9771 19.3587 16.8964 20.4394 16.8964 21.7725C16.8964 23.1056 17.9771 24.1862 19.3102 24.1862Z" fill="url(#paint8_linear)"/>
<path d="M32.5861 24.1862C33.9192 24.1862 34.9999 23.1056 34.9999 21.7725C34.9999 20.4394 33.9192 19.3587 32.5861 19.3587C31.253 19.3587 30.1723 20.4394 30.1723 21.7725C30.1723 23.1056 31.253 24.1862 32.5861 24.1862Z" fill="url(#paint9_linear)"/>
<path d="M30.1723 0H9.65506C9.30862 0 8.97926 0.148477 8.75108 0.407969C8.5218 0.668691 8.41434 1.01377 8.45781 1.35652C9.21934 7.46348 14.4343 12.069 20.5896 12.069H39.8275C40.495 12.069 41.0345 11.5283 41.0345 10.862C41.0343 4.87348 36.1621 0 30.1723 0ZM20.5896 9.65522C16.1168 9.65522 12.262 6.62471 11.119 2.41377H30.1723C34.4218 2.41377 37.9471 5.56623 38.5348 9.65522H20.5896Z" fill="url(#paint10_linear)"/>
<path d="M18.1203 9.46082C17.43 13.6923 12.8378 15.7705 12.7906 15.791L13.2288 16.7894L13.7586 18.0033C13.9963 17.8995 19.5975 15.394 20.5026 9.84828L18.1203 9.46082Z" fill="url(#paint11_linear)"/>
<path d="M34.9431 10.4976L32.6416 11.2218C32.7104 11.445 34.4073 16.6998 39.5161 18.0625L40.1389 15.7295C36.3311 14.7145 34.9576 10.5398 34.9431 10.4976Z" fill="url(#paint12_linear)"/>
<defs>
<linearGradient id="paint0_linear" x1="15.6445" y1="61.6724" x2="-1.60453" y2="48.923" gradientUnits="userSpaceOnUse">
<stop stop-color="#F8A822"/>
<stop offset="1" stop-color="#FCD41F"/>
</linearGradient>
<linearGradient id="paint1_linear" x1="48.2305" y1="61.6724" x2="30.9814" y2="48.923" gradientUnits="userSpaceOnUse">
<stop stop-color="#F8A822"/>
<stop offset="1" stop-color="#FCD41F"/>
</linearGradient>
<linearGradient id="paint2_linear" x1="43.2218" y1="26.0689" x2="37.5806" y2="22.5431" gradientUnits="userSpaceOnUse">
<stop stop-color="#F8A822"/>
<stop offset="1" stop-color="#FCD41F"/>
</linearGradient>
<linearGradient id="paint3_linear" x1="13.0496" y1="26.069" x2="7.40838" y2="22.5432" gradientUnits="userSpaceOnUse">
<stop stop-color="#F8A822"/>
<stop offset="1" stop-color="#FCD41F"/>
</linearGradient>
<linearGradient id="paint4_linear" x1="32.8375" y1="54.8918" x2="28.1113" y2="43.7215" gradientUnits="userSpaceOnUse">
<stop stop-color="#F8A822"/>
<stop offset="1" stop-color="#FCD41F"/>
</linearGradient>
<linearGradient id="paint5_linear" x1="26.6118" y1="26.9173" x2="21.3472" y2="24.6089" gradientUnits="userSpaceOnUse">
<stop stop-color="#F8A822"/>
<stop offset="1" stop-color="#FCD41F"/>
</linearGradient>
<linearGradient id="paint6_linear" x1="30.939" y1="33.656" x2="28.8371" y2="28.7286" gradientUnits="userSpaceOnUse">
<stop stop-color="#F8A822"/>
<stop offset="1" stop-color="#FCD41F"/>
</linearGradient>
<linearGradient id="paint7_linear" x1="34.1165" y1="34.6252" x2="10.3944" y2="16.4875" gradientUnits="userSpaceOnUse">
<stop stop-color="#F8A822"/>
<stop offset="1" stop-color="#FCD41F"/>
</linearGradient>
<linearGradient id="paint8_linear" x1="20.5774" y1="22.738" x2="17.4395" y2="19.6001" gradientUnits="userSpaceOnUse">
<stop stop-color="#F8A822"/>
<stop offset="1" stop-color="#FCD41F"/>
</linearGradient>
<linearGradient id="paint9_linear" x1="33.8533" y1="22.738" x2="30.7154" y2="19.6001" gradientUnits="userSpaceOnUse">
<stop stop-color="#F8A822"/>
<stop offset="1" stop-color="#FCD41F"/>
</linearGradient>
<linearGradient id="paint10_linear" x1="33.2953" y1="8.44829" x2="28.1852" y2="-5.34878" gradientUnits="userSpaceOnUse">
<stop stop-color="#F8A822"/>
<stop offset="1" stop-color="#FCD41F"/>
</linearGradient>
<linearGradient id="paint11_linear" x1="18.671" y1="15.4405" x2="13.1473" y2="10.4538" gradientUnits="userSpaceOnUse">
<stop stop-color="#F8A822"/>
<stop offset="1" stop-color="#FCD41F"/>
</linearGradient>
<linearGradient id="paint12_linear" x1="38.3583" y1="15.793" x2="33.4413" y2="10.92" gradientUnits="userSpaceOnUse">
<stop stop-color="#F8A822"/>
<stop offset="1" stop-color="#FCD41F"/>
</linearGradient>
</defs>
</svg>
