<svg width="78" height="70" viewBox="0 0 78 70" fill="none" xmlns="http://www.w3.org/2000/svg">
<path d="M38.9566 15.2174C38.1166 15.2174 37.4348 15.8992 37.4348 16.7391C37.4348 17.5791 38.1166 18.2609 38.9566 18.2609C39.7965 18.2609 40.4783 17.5791 40.4783 16.7391C40.4783 15.8992 39.7965 15.2174 38.9566 15.2174Z" fill="url(#paint0_linear)"/>
<path d="M13.6956 42.6087C14.5355 42.6087 15.2173 41.9269 15.2173 41.0869C15.2173 40.247 14.5355 39.5652 13.6956 39.5652C12.8556 39.5652 12.1738 40.247 12.1738 41.0869C12.1738 41.9269 12.8556 42.6087 13.6956 42.6087Z" fill="url(#paint1_linear)"/>
<path d="M51.1304 0C37.4306 0 26.1864 9.44548 25.3167 21.343C12.2696 21.9975 0 31.4055 0 44.1304C0 49.4482 2.10428 54.6007 5.93478 58.6833C6.69268 61.8076 5.7725 65.1191 3.4893 67.4023C3.05418 67.8375 2.924 68.4919 3.15939 69.0608C3.39479 69.6291 3.94939 70 4.56522 70C8.90515 70 13.0876 68.2981 16.1952 65.2992C19.2227 66.3312 23.1726 66.9565 26.7826 66.9565C40.4806 66.9565 51.7237 57.5134 52.5957 45.6183C55.7818 45.4768 59.0958 44.8883 61.7178 43.9949C64.8255 46.9938 69.0079 48.6956 73.3478 48.6956C73.9637 48.6956 74.5183 48.3247 74.7536 47.7565C74.989 47.1876 74.8589 46.5331 74.4237 46.098C72.1405 43.8148 71.2204 40.5032 71.9783 37.3789C75.8088 33.2964 77.913 28.1439 77.913 22.8261C77.913 9.60419 64.6983 0 51.1304 0ZM26.7826 63.913C23.1911 63.913 19.0984 63.208 16.3569 62.1173C15.7696 61.8831 15.0985 62.037 14.6711 62.5037C12.8337 64.5122 10.4447 65.9127 7.84171 66.5565C9.27607 63.8084 9.64224 60.5688 8.76962 57.4991C8.70066 57.2572 8.57286 57.0361 8.3975 56.856C4.94506 53.3001 3.04348 48.7807 3.04348 44.1304C3.04348 33.4069 13.9144 24.3478 26.7826 24.3478C38.9339 24.3478 49.6087 32.7976 49.6087 44.1304C49.6087 55.0388 39.3691 63.913 26.7826 63.913ZM69.5155 35.5516C69.3402 35.7323 69.2124 35.9535 69.1434 36.1948C68.2708 39.2644 68.637 42.5041 70.0713 45.2521C67.4683 44.6089 65.0793 43.2079 63.2419 41.1993C62.8145 40.7333 62.1434 40.5787 61.5561 40.8129C59.1802 41.7581 55.7908 42.4125 52.5909 42.5707C52.1463 36.816 49.2758 31.4073 44.3682 27.3913H64.2174C65.0579 27.3913 65.7391 26.7101 65.7391 25.8696C65.7391 25.029 65.0579 24.3478 64.2174 24.3478H39.693C36.2388 22.5895 32.3601 21.5641 28.368 21.3489C29.2424 11.1283 39.1176 3.04348 51.1304 3.04348C63.9986 3.04348 74.8696 12.1026 74.8696 22.8261C74.8696 27.4763 72.968 31.9958 69.5155 35.5516Z" fill="url(#paint2_linear)"/>
<path d="M38.9566 39.5652H19.7827C18.9422 39.5652 18.261 40.2464 18.261 41.0869C18.261 41.9274 18.9422 42.6087 19.7827 42.6087H38.9566C39.7972 42.6087 40.4784 41.9274 40.4784 41.0869C40.4784 40.2464 39.7972 39.5652 38.9566 39.5652Z" fill="url(#paint3_linear)"/>
<path d="M38.9564 48.6957H13.6956C12.855 48.6957 12.1738 49.3769 12.1738 50.2174C12.1738 51.0579 12.855 51.7392 13.6956 51.7392H38.9564C39.797 51.7392 40.4782 51.0579 40.4782 50.2174C40.4782 49.3769 39.797 48.6957 38.9564 48.6957Z" fill="url(#paint4_linear)"/>
<path d="M64.2174 15.2174H45.0435C44.2029 15.2174 43.5217 15.8986 43.5217 16.7391C43.5217 17.5797 44.2029 18.2609 45.0435 18.2609H64.2174C65.0579 18.2609 65.7391 17.5797 65.7391 16.7391C65.7391 15.8986 65.0579 15.2174 64.2174 15.2174Z" fill="url(#paint5_linear)"/>
<defs>
<linearGradient id="paint0_linear" x1="39.7555" y1="17.3478" x2="37.7772" y2="15.3696" gradientUnits="userSpaceOnUse">
<stop stop-color="#F8A822"/>
<stop offset="1" stop-color="#FCD41F"/>
</linearGradient>
<linearGradient id="paint1_linear" x1="14.4945" y1="41.6956" x2="12.5162" y2="39.7174" gradientUnits="userSpaceOnUse">
<stop stop-color="#F8A822"/>
<stop offset="1" stop-color="#FCD41F"/>
</linearGradient>
<linearGradient id="paint2_linear" x1="59.4087" y1="49" x2="14.1684" y2="-1.35442" gradientUnits="userSpaceOnUse">
<stop stop-color="#F8A822"/>
<stop offset="1" stop-color="#FCD41F"/>
</linearGradient>
<linearGradient id="paint3_linear" x1="35.2017" y1="41.6956" x2="34.6697" y2="37.812" gradientUnits="userSpaceOnUse">
<stop stop-color="#F8A822"/>
<stop offset="1" stop-color="#FCD41F"/>
</linearGradient>
<linearGradient id="paint4_linear" x1="33.7559" y1="50.8261" x2="33.3353" y2="46.9148" gradientUnits="userSpaceOnUse">
<stop stop-color="#F8A822"/>
<stop offset="1" stop-color="#FCD41F"/>
</linearGradient>
<linearGradient id="paint5_linear" x1="60.4625" y1="17.3478" x2="59.9305" y2="13.4642" gradientUnits="userSpaceOnUse">
<stop stop-color="#F8A822"/>
<stop offset="1" stop-color="#FCD41F"/>
</linearGradient>
</defs>
</svg>
