<svg width="70" height="70" viewBox="0 0 70 70" fill="none" xmlns="http://www.w3.org/2000/svg">
<path d="M68.871 6.77419C69.4942 6.77419 70 6.26952 70 5.64516V1.12903C70 0.504677 69.4942 0 68.871 0H1.12903C0.505806 0 0 0.504677 0 1.12903V5.64516C0 6.26952 0.505806 6.77419 1.12903 6.77419H2.25806V33.871H1.12903C0.505806 33.871 0 34.3756 0 35V41.7742C0 42.3985 0.505806 42.9032 1.12903 42.9032H68.871C69.4942 42.9032 70 42.3985 70 41.7742V35C70 34.3756 69.4942 33.871 68.871 33.871H67.7419V6.77419H68.871ZM2.25806 2.25806H67.7419V4.51613H2.25806V2.25806ZM44.0323 33.871V28.2258C44.0323 27.6015 43.5265 27.0968 42.9032 27.0968H27.0968C26.4735 27.0968 25.9677 27.6015 25.9677 28.2258V33.871H11.2903V11.7577L12.9839 10.0642L15.0082 12.0885L16.6047 10.4921L14.5803 8.46774L16.2739 6.77419H53.7261L55.4197 8.46774L53.3953 10.4921L54.9918 12.0885L57.0161 10.0642L58.7097 11.7577V33.871H44.0323ZM41.7742 33.871H28.2258V29.3548H41.7742V33.871ZM11.2903 8.56484V6.77419H13.081L11.2903 8.56484ZM9.03226 16.4681L4.98355 12.4194L9.03226 8.37064V16.4681ZM4.51613 15.1448L8.56484 19.1935L4.51613 23.2423V15.1448ZM9.03226 21.919V30.0165L4.98355 25.9677L9.03226 21.919ZM58.7097 8.56484L56.919 6.77419H58.7097V8.56484ZM60.9677 21.919L65.0164 25.9677L60.9677 30.0165V21.919ZM65.4839 23.2423L61.4352 19.1935L65.4839 15.1448V23.2423ZM60.9677 16.4681V8.37064L65.0164 12.4194L60.9677 16.4681ZM7.43581 6.77419L4.51613 9.69387V6.77419H7.43581ZM4.51613 28.6932L9.03226 33.2094V33.871H4.51613V28.6932ZM67.7419 40.6452H2.25806V36.129H67.7419V40.6452ZM60.9677 33.871V33.2094L65.4839 28.6932V33.871H60.9677ZM65.4839 9.69387L62.5642 6.77419H65.4839V9.69387Z" fill="url(#paint0_linear)"/>
<path d="M44.2341 26.4786L53.2711 12.9313L55.1499 14.1845L46.1128 27.7319L44.2341 26.4786Z" fill="url(#paint1_linear)"/>
<path d="M41.1504 17.1116L51.3114 10.3335L52.5646 12.2122L42.4036 18.9903L41.1504 17.1116Z" fill="url(#paint2_linear)"/>
<path d="M14.8704 14.1676L16.7491 12.9144L25.7861 26.4618L23.9074 27.715L14.8704 14.1676Z" fill="url(#paint3_linear)"/>
<path d="M17.4448 12.2336L18.6981 10.3549L28.8591 17.133L27.6058 19.0117L17.4448 12.2336Z" fill="url(#paint4_linear)"/>
<path d="M35 22.5807C36.2471 22.5807 37.2581 21.5697 37.2581 20.3226C37.2581 19.0755 36.2471 18.0646 35 18.0646C33.7529 18.0646 32.7419 19.0755 32.7419 20.3226C32.7419 21.5697 33.7529 22.5807 35 22.5807Z" fill="url(#paint5_linear)"/>
<path d="M36.6936 23.7097H33.3065L30.2581 19.6451L28.4517 21L31.8388 25.5161C32.051 25.8006 32.3863 25.9677 32.742 25.9677H37.2581C37.6138 25.9677 37.9479 25.8006 38.1613 25.5161L41.5484 21L39.742 19.6451L36.6936 23.7097Z" fill="url(#paint6_linear)"/>
<path d="M4.51611 56.4517C4.51611 58.3191 6.03579 59.8388 7.90321 59.8388C9.77063 59.8388 11.2903 58.3191 11.2903 56.4517C11.2903 54.5843 9.77063 53.0646 7.90321 53.0646C6.03579 53.0646 4.51611 54.5843 4.51611 56.4517ZM9.03224 56.4517C9.03224 57.0749 8.52531 57.5807 7.90321 57.5807C7.28111 57.5807 6.77418 57.0749 6.77418 56.4517C6.77418 55.8284 7.28111 55.3226 7.90321 55.3226C8.52531 55.3226 9.03224 55.8284 9.03224 56.4517Z" fill="url(#paint7_linear)"/>
<path d="M13.7956 55.746L9.61932 60.9677H6.18706L2.00964 55.746L0.246094 57.1573L4.51609 62.4931V68.871C4.51609 69.4953 5.0219 70 5.64513 70H10.1613C10.7845 70 11.2903 69.4953 11.2903 68.871V62.4931L15.5592 57.1573L13.7956 55.746ZM6.77416 67.7419V63.2258H9.03222V67.7419H6.77416Z" fill="url(#paint8_linear)"/>
<path d="M24.8388 59.8388C26.7062 59.8388 28.2259 58.3191 28.2259 56.4517C28.2259 54.5843 26.7062 53.0646 24.8388 53.0646C22.9713 53.0646 21.4517 54.5843 21.4517 56.4517C21.4517 58.3191 22.9713 59.8388 24.8388 59.8388ZM24.8388 55.3226C25.4609 55.3226 25.9678 55.8284 25.9678 56.4517C25.9678 57.0749 25.4609 57.5807 24.8388 57.5807C24.2167 57.5807 23.7097 57.0749 23.7097 56.4517C23.7097 55.8284 24.2167 55.3226 24.8388 55.3226Z" fill="url(#paint9_linear)"/>
<path d="M30.7312 55.746L26.5549 60.9677H23.1226L18.9452 55.746L17.1816 57.1573L21.4516 62.4931V68.871C21.4516 69.4953 21.9574 70 22.5807 70H27.0968C27.72 70 28.2258 69.4953 28.2258 68.871V62.4931L32.4947 57.1573L30.7312 55.746ZM23.7097 67.7419V63.2258H25.9678V67.7419H23.7097Z" fill="url(#paint10_linear)"/>
<path d="M41.7742 56.4517C41.7742 58.3191 43.2938 59.8388 45.1613 59.8388C47.0287 59.8388 48.5484 58.3191 48.5484 56.4517C48.5484 54.5843 47.0287 53.0646 45.1613 53.0646C43.2938 53.0646 41.7742 54.5843 41.7742 56.4517ZM46.2903 56.4517C46.2903 57.0749 45.7834 57.5807 45.1613 57.5807C44.5392 57.5807 44.0322 57.0749 44.0322 56.4517C44.0322 55.8284 44.5392 55.3226 45.1613 55.3226C45.7834 55.3226 46.2903 55.8284 46.2903 56.4517Z" fill="url(#paint11_linear)"/>
<path d="M51.0537 55.746L46.8774 60.9677H43.4451L39.2677 55.746L37.5042 57.1573L41.7742 62.4931V68.871C41.7742 69.4953 42.28 70 42.9032 70H47.4193C48.0425 70 48.5483 69.4953 48.5483 68.871V62.4931L52.8172 57.1573L51.0537 55.746ZM44.0322 67.7419V63.2258H46.2903V67.7419H44.0322Z" fill="url(#paint12_linear)"/>
<path d="M62.0968 59.8388C63.9642 59.8388 65.4839 58.3191 65.4839 56.4517C65.4839 54.5843 63.9642 53.0646 62.0968 53.0646C60.2294 53.0646 58.7097 54.5843 58.7097 56.4517C58.7097 58.3191 60.2294 59.8388 62.0968 59.8388ZM62.0968 55.3226C62.7189 55.3226 63.2258 55.8284 63.2258 56.4517C63.2258 57.0749 62.7189 57.5807 62.0968 57.5807C61.4747 57.5807 60.9678 57.0749 60.9678 56.4517C60.9678 55.8284 61.4747 55.3226 62.0968 55.3226Z" fill="url(#paint13_linear)"/>
<path d="M67.9892 55.746L63.8129 60.9677H60.3807L56.2032 55.746L54.4397 57.1573L58.7097 62.4931V68.871C58.7097 69.4953 59.2155 70 59.8387 70H64.3549C64.9781 70 65.4839 69.4953 65.4839 68.871V62.4931L69.7528 57.1573L67.9892 55.746ZM60.9678 67.7419V63.2258H63.2258V67.7419H60.9678Z" fill="url(#paint14_linear)"/>
<path d="M56.4517 48.5484C56.4517 46.6809 54.932 45.1613 53.0646 45.1613C51.1972 45.1613 49.6775 46.6809 49.6775 48.5484C49.6775 50.4158 51.1972 51.9354 53.0646 51.9354C54.932 51.9354 56.4517 50.4158 56.4517 48.5484ZM51.9356 48.5484C51.9356 47.9251 52.4425 47.4193 53.0646 47.4193C53.6867 47.4193 54.1936 47.9251 54.1936 48.5484C54.1936 49.1716 53.6867 49.6774 53.0646 49.6774C52.4425 49.6774 51.9356 49.1716 51.9356 48.5484Z" fill="url(#paint15_linear)"/>
<path d="M45.4084 49.2541L49.9246 54.8992C50.1391 55.1668 50.4631 55.3226 50.8063 55.3226H55.3225C55.6657 55.3226 55.9897 55.1668 56.2042 54.8992L60.7204 49.2541L58.9568 47.8428L54.7805 53.0645H51.3483L47.1709 47.8428L45.4084 49.2541Z" fill="url(#paint16_linear)"/>
<path d="M38.387 48.5484C38.387 46.6809 36.8673 45.1613 34.9999 45.1613C33.1325 45.1613 31.6128 46.6809 31.6128 48.5484C31.6128 50.4158 33.1325 51.9354 34.9999 51.9354C36.8673 51.9354 38.387 50.4158 38.387 48.5484ZM33.8709 48.5484C33.8709 47.9251 34.3778 47.4193 34.9999 47.4193C35.622 47.4193 36.1289 47.9251 36.1289 48.5484C36.1289 49.1716 35.622 49.6774 34.9999 49.6774C34.3778 49.6774 33.8709 49.1716 33.8709 48.5484Z" fill="url(#paint17_linear)"/>
<path d="M42.6561 49.2541L40.8925 47.8428L36.7162 53.0645H33.284L29.1066 47.8428L27.343 49.2541L31.8591 54.8992C32.0748 55.1668 32.3988 55.3226 32.742 55.3226H37.2582C37.6014 55.3226 37.9254 55.1668 38.14 54.8992L42.6561 49.2541Z" fill="url(#paint18_linear)"/>
<path d="M20.3225 48.5484C20.3225 46.6809 18.8029 45.1613 16.9354 45.1613C15.068 45.1613 13.5483 46.6809 13.5483 48.5484C13.5483 50.4158 15.068 51.9354 16.9354 51.9354C18.8029 51.9354 20.3225 50.4158 20.3225 48.5484ZM15.8064 48.5484C15.8064 47.9251 16.3133 47.4193 16.9354 47.4193C17.5575 47.4193 18.0645 47.9251 18.0645 48.5484C18.0645 49.1716 17.5575 49.6774 16.9354 49.6774C16.3133 49.6774 15.8064 49.1716 15.8064 48.5484Z" fill="url(#paint19_linear)"/>
<path d="M9.27954 49.2541L13.7957 54.8992C14.0102 55.1668 14.3342 55.3226 14.6774 55.3226H19.1936C19.5368 55.3226 19.8608 55.1668 20.0753 54.8992L24.5915 49.2541L22.8279 47.8428L18.6516 53.0645H15.2194L11.042 47.8428L9.27954 49.2541Z" fill="url(#paint20_linear)"/>
<defs>
<linearGradient id="paint0_linear" x1="53.375" y1="30.0323" x2="28.5255" y2="-10.5116" gradientUnits="userSpaceOnUse">
<stop stop-color="#F8A822"/>
<stop offset="1" stop-color="#FCD41F"/>
</linearGradient>
<linearGradient id="paint1_linear" x1="52.4399" y1="17.026" x2="49.822" y2="15.7599" gradientUnits="userSpaceOnUse">
<stop stop-color="#F8A822"/>
<stop offset="1" stop-color="#FCD41F"/>
</linearGradient>
<linearGradient id="paint2_linear" x1="49.7754" y1="13.2584" x2="47.7634" y2="11.1881" gradientUnits="userSpaceOnUse">
<stop stop-color="#F8A822"/>
<stop offset="1" stop-color="#FCD41F"/>
</linearGradient>
<linearGradient id="paint3_linear" x1="22.6288" y1="22.6952" x2="20.0109" y2="23.9613" gradientUnits="userSpaceOnUse">
<stop stop-color="#F8A822"/>
<stop offset="1" stop-color="#FCD41F"/>
</linearGradient>
<linearGradient id="paint4_linear" x1="25.5131" y1="15.5458" x2="23.5011" y2="17.6161" gradientUnits="userSpaceOnUse">
<stop stop-color="#F8A822"/>
<stop offset="1" stop-color="#FCD41F"/>
</linearGradient>
<linearGradient id="paint5_linear" x1="36.1855" y1="21.2259" x2="33.25" y2="18.2904" gradientUnits="userSpaceOnUse">
<stop stop-color="#F8A822"/>
<stop offset="1" stop-color="#FCD41F"/>
</linearGradient>
<linearGradient id="paint6_linear" x1="38.4379" y1="24.0709" x2="35.22" y2="17.4051" gradientUnits="userSpaceOnUse">
<stop stop-color="#F8A822"/>
<stop offset="1" stop-color="#FCD41F"/>
</linearGradient>
<linearGradient id="paint7_linear" x1="9.68144" y1="57.8065" x2="5.27821" y2="53.4033" gradientUnits="userSpaceOnUse">
<stop stop-color="#F8A822"/>
<stop offset="1" stop-color="#FCD41F"/>
</linearGradient>
<linearGradient id="paint8_linear" x1="11.9223" y1="65.7238" x2="2.68093" y2="55.7958" gradientUnits="userSpaceOnUse">
<stop stop-color="#F8A822"/>
<stop offset="1" stop-color="#FCD41F"/>
</linearGradient>
<linearGradient id="paint9_linear" x1="26.617" y1="57.8065" x2="22.2138" y2="53.4033" gradientUnits="userSpaceOnUse">
<stop stop-color="#F8A822"/>
<stop offset="1" stop-color="#FCD41F"/>
</linearGradient>
<linearGradient id="paint10_linear" x1="28.8579" y1="65.7238" x2="19.6165" y2="55.7958" gradientUnits="userSpaceOnUse">
<stop stop-color="#F8A822"/>
<stop offset="1" stop-color="#FCD41F"/>
</linearGradient>
<linearGradient id="paint11_linear" x1="46.9395" y1="57.8065" x2="42.5363" y2="53.4033" gradientUnits="userSpaceOnUse">
<stop stop-color="#F8A822"/>
<stop offset="1" stop-color="#FCD41F"/>
</linearGradient>
<linearGradient id="paint12_linear" x1="49.1804" y1="65.7238" x2="39.939" y2="55.7958" gradientUnits="userSpaceOnUse">
<stop stop-color="#F8A822"/>
<stop offset="1" stop-color="#FCD41F"/>
</linearGradient>
<linearGradient id="paint13_linear" x1="63.875" y1="57.8065" x2="59.4718" y2="53.4033" gradientUnits="userSpaceOnUse">
<stop stop-color="#F8A822"/>
<stop offset="1" stop-color="#FCD41F"/>
</linearGradient>
<linearGradient id="paint14_linear" x1="66.1159" y1="65.7238" x2="56.8745" y2="55.7958" gradientUnits="userSpaceOnUse">
<stop stop-color="#F8A822"/>
<stop offset="1" stop-color="#FCD41F"/>
</linearGradient>
<linearGradient id="paint15_linear" x1="54.8428" y1="49.9032" x2="50.4396" y2="45.5" gradientUnits="userSpaceOnUse">
<stop stop-color="#F8A822"/>
<stop offset="1" stop-color="#FCD41F"/>
</linearGradient>
<linearGradient id="paint16_linear" x1="57.0838" y1="53.0787" x2="53.2489" y2="45.2282" gradientUnits="userSpaceOnUse">
<stop stop-color="#F8A822"/>
<stop offset="1" stop-color="#FCD41F"/>
</linearGradient>
<linearGradient id="paint17_linear" x1="36.7781" y1="49.9032" x2="32.3749" y2="45.5" gradientUnits="userSpaceOnUse">
<stop stop-color="#F8A822"/>
<stop offset="1" stop-color="#FCD41F"/>
</linearGradient>
<linearGradient id="paint18_linear" x1="39.0192" y1="53.0787" x2="35.1845" y2="45.228" gradientUnits="userSpaceOnUse">
<stop stop-color="#F8A822"/>
<stop offset="1" stop-color="#FCD41F"/>
</linearGradient>
<linearGradient id="paint19_linear" x1="18.7137" y1="49.9032" x2="14.3104" y2="45.5" gradientUnits="userSpaceOnUse">
<stop stop-color="#F8A822"/>
<stop offset="1" stop-color="#FCD41F"/>
</linearGradient>
<linearGradient id="paint20_linear" x1="20.9549" y1="53.0787" x2="17.12" y2="45.2282" gradientUnits="userSpaceOnUse">
<stop stop-color="#F8A822"/>
<stop offset="1" stop-color="#FCD41F"/>
</linearGradient>
</defs>
</svg>
