<svg width="50" height="47" viewBox="0 0 50 47" fill="none" xmlns="http://www.w3.org/2000/svg">
<path d="M48.4375 6.25211H28.125V1.56461C28.125 1.09898 27.9188 0.658355 27.5594 0.36148C27.2031 0.0646055 26.725 -0.0635195 26.275 0.0302305L1.275 4.71773C0.534375 4.85523 0 5.49898 0 6.25211V40.6271C0 41.3771 0.534375 42.024 1.275 42.1615L26.275 46.849C26.3687 46.8677 26.4656 46.8771 26.5625 46.8771C26.925 46.8771 27.2781 46.7521 27.5594 46.5177C27.9188 46.2209 28.125 45.7771 28.125 45.3146V40.6271H48.4375C49.3 40.6271 50 39.9271 50 39.0646V7.81461C50 6.95211 49.3 6.25211 48.4375 6.25211ZM21.4875 28.6615C22.0562 29.3084 21.9906 30.2959 21.3406 30.8646C21.0437 31.124 20.6781 31.2521 20.3125 31.2521C19.8781 31.2521 19.4469 31.0709 19.1375 30.7177L14.5938 25.5271L10.6094 30.6521C10.3 31.0459 9.8375 31.2521 9.375 31.2521C9.04062 31.2521 8.70313 31.1459 8.41563 30.924C7.73438 30.3927 7.6125 29.4115 8.14063 28.7302L12.4969 23.1302L8.2 18.2177C7.63125 17.5709 7.69687 16.5834 8.34688 16.0146C8.99375 15.4459 9.97813 15.5084 10.5531 16.1615L14.4531 20.6177L19.0812 14.6677C19.6125 13.9896 20.5938 13.8646 21.275 14.3959C21.9563 14.924 22.0781 15.9052 21.5469 16.5896L16.5469 23.0146L21.4875 28.6615ZM46.875 37.5021H28.125V34.3771H32.8125C33.675 34.3771 34.375 33.6771 34.375 32.8146C34.375 31.9521 33.675 31.2521 32.8125 31.2521H28.125V28.1271H32.8125C33.675 28.1271 34.375 27.4271 34.375 26.5646C34.375 25.7021 33.675 25.0021 32.8125 25.0021H28.125V21.8771H32.8125C33.675 21.8771 34.375 21.1771 34.375 20.3146C34.375 19.4521 33.675 18.7521 32.8125 18.7521H28.125V15.6271H32.8125C33.675 15.6271 34.375 14.9271 34.375 14.0646C34.375 13.2021 33.675 12.5021 32.8125 12.5021H28.125V9.37711H46.875V37.5021Z" fill="white"/>
<path d="M42.1875 12.502H39.0625C38.2 12.502 37.5 13.202 37.5 14.0645C37.5 14.927 38.2 15.627 39.0625 15.627H42.1875C43.05 15.627 43.75 14.927 43.75 14.0645C43.75 13.202 43.05 12.502 42.1875 12.502Z" fill="white"/>
<path d="M42.1875 18.752H39.0625C38.2 18.752 37.5 19.452 37.5 20.3145C37.5 21.177 38.2 21.877 39.0625 21.877H42.1875C43.05 21.877 43.75 21.177 43.75 20.3145C43.75 19.452 43.05 18.752 42.1875 18.752Z" fill="white"/>
<path d="M42.1875 25.002H39.0625C38.2 25.002 37.5 25.702 37.5 26.5645C37.5 27.427 38.2 28.127 39.0625 28.127H42.1875C43.05 28.127 43.75 27.427 43.75 26.5645C43.75 25.702 43.05 25.002 42.1875 25.002Z" fill="white"/>
<path d="M42.1875 31.252H39.0625C38.2 31.252 37.5 31.952 37.5 32.8145C37.5 33.677 38.2 34.377 39.0625 34.377H42.1875C43.05 34.377 43.75 33.677 43.75 32.8145C43.75 31.952 43.05 31.252 42.1875 31.252Z" fill="white"/>
</svg>
