<svg width="14" height="25" viewBox="0 0 14 25" fill="none" xmlns="http://www.w3.org/2000/svg">
<path d="M0.787753 14.5177H3.4325V24.2177C3.4325 24.649 3.78437 24.999 4.22026 24.999L8.42896 25C8.86485 25 9.21671 24.649 9.21671 24.2187V14.5187H11.7239C12.1209 14.5187 12.456 14.225 12.5053 13.8344L13.0284 9.66771C13.0872 9.20312 12.7206 8.78958 12.2469 8.78958H9.21671C9.3354 6.21562 8.75982 5.45417 10.4477 5.45417C11.5905 5.31875 13.3929 5.89271 13.3929 4.67292V0.946875C13.3929 0.55625 13.1019 0.226042 12.7122 0.172917C12.3824 0.128125 11.079 0 9.4625 0C2.09963 0 3.61526 8.09583 3.43356 8.78854H0.787753C0.352914 8.78854 0 9.13854 0 9.56979V13.7365C0 14.1677 0.352914 14.5177 0.787753 14.5177V14.5177ZM1.57551 10.3521H4.22026C4.6551 10.3521 5.00801 10.0021 5.00801 9.57083V6.28854C5.00801 3.28542 6.63078 1.56354 9.46144 1.56354C10.3836 1.56354 11.2323 1.60833 11.8163 1.65417V3.89271C11.3941 4.10625 7.64016 2.97187 7.64016 6.70208V9.57187C7.64016 10.0031 7.99307 10.3531 8.42791 10.3531H11.3542L11.0264 12.9573H8.42791C7.99307 12.9573 7.64016 13.3073 7.64016 13.7385V23.4375H5.00906V13.7375C5.00906 13.3062 4.65615 12.9562 4.22131 12.9562H1.57551V10.3521Z" fill="#34353F"/>
</svg>
