<svg width="9" height="15" viewBox="0 0 9 15" fill="none" xmlns="http://www.w3.org/2000/svg">
<path d="M0.472652 8.71063H2.0595V14.5306C2.0595 14.7894 2.27062 14.9994 2.53215 14.9994L5.05738 15C5.31891 15 5.53003 14.7894 5.53003 14.5312V8.71125H7.03432C7.27254 8.71125 7.47357 8.535 7.50319 8.30063L7.81703 5.80063C7.85233 5.52188 7.63238 5.27375 7.34816 5.27375H5.53003C5.60124 3.72937 5.25589 3.2725 6.26863 3.2725C6.95429 3.19125 8.03571 3.53563 8.03571 2.80375V0.568125C8.03571 0.33375 7.86115 0.135625 7.62734 0.10375C7.42946 0.076875 6.64738 0 5.6775 0C1.25978 0 2.16916 4.8575 2.06013 5.27313H0.472652C0.211748 5.27313 0 5.48313 0 5.74188V8.24188C0 8.50063 0.211748 8.71063 0.472652 8.71063V8.71063ZM0.945304 6.21125H2.53215C2.79306 6.21125 3.00481 6.00125 3.00481 5.7425V3.77313C3.00481 1.97125 3.97847 0.938125 5.67687 0.938125C6.23018 0.938125 6.73939 0.965 7.08978 0.9925V2.33562C6.83644 2.46375 4.58409 1.78312 4.58409 4.02125V5.74313C4.58409 6.00188 4.79584 6.21188 5.05675 6.21188H6.81249L6.61587 7.77438H5.05675C4.79584 7.77438 4.58409 7.98438 4.58409 8.24313V14.0625H3.00544V8.2425C3.00544 7.98375 2.79369 7.77375 2.53279 7.77375H0.945304V6.21125Z" fill="white"/>
</svg>
