<svg width="70" height="65" viewBox="0 0 70 65" fill="none" xmlns="http://www.w3.org/2000/svg">
<path d="M21.5876 22.4885C21.1478 22.1317 20.5022 22.199 20.1454 22.639C19.7311 23.1498 19.1819 23.431 18.5987 23.431C18.0154 23.431 17.4662 23.1496 17.052 22.639C16.6953 22.1992 16.0494 22.1319 15.6097 22.4885C15.1699 22.8452 15.1025 23.4909 15.4592 23.9307C16.2586 24.9165 17.4029 25.4818 18.5987 25.4818C19.7944 25.4818 20.9386 24.9165 21.7382 23.9307C22.0949 23.4909 22.0275 22.8452 21.5876 22.4885Z" fill="url(#paint0_linear)"/>
<path d="M13.9124 16.4017C13.3461 16.4017 12.887 16.8608 12.887 17.4271V18.5986C12.887 19.1649 13.3461 19.624 13.9124 19.624C14.4787 19.624 14.9378 19.1649 14.9378 18.5986V17.4271C14.9378 16.8608 14.4787 16.4017 13.9124 16.4017Z" fill="url(#paint1_linear)"/>
<path d="M23.2849 16.4017C22.7186 16.4017 22.2595 16.8608 22.2595 17.4271V18.5986C22.2595 19.1649 22.7184 19.624 23.2849 19.624C23.8512 19.624 24.3103 19.1649 24.3103 18.5986V17.4271C24.3103 16.8608 23.8512 16.4017 23.2849 16.4017Z" fill="url(#paint2_linear)"/>
<path d="M55.5624 28.3461C55.1226 27.9894 54.4768 28.0567 54.1201 28.4966C53.7059 29.0073 53.1565 29.2887 52.5734 29.2887C51.9902 29.2887 51.441 29.0073 51.0267 28.4966C50.6702 28.0568 50.0243 27.9894 49.5845 28.3461C49.1446 28.7028 49.0774 29.3485 49.4341 29.7884C50.2333 30.7743 51.3777 31.3395 52.5734 31.3395C53.7692 31.3395 54.9134 30.7741 55.7128 29.7884C56.0695 29.3485 56.0022 28.7028 55.5624 28.3461Z" fill="url(#paint3_linear)"/>
<path d="M47.8872 22.2595C47.3209 22.2595 46.8618 22.7186 46.8618 23.2849V24.4565C46.8618 25.0228 47.3209 25.4819 47.8872 25.4819C48.4535 25.4819 48.9126 25.0228 48.9126 24.4565V23.2849C48.9126 22.7186 48.4535 22.2595 47.8872 22.2595Z" fill="url(#paint4_linear)"/>
<path d="M57.2596 22.2595C56.6934 22.2595 56.2343 22.7186 56.2343 23.2849V24.4565C56.2343 25.0228 56.6932 25.4819 57.2596 25.4819C57.8259 25.4819 58.285 25.0228 58.285 24.4565V23.2849C58.285 22.7186 57.8259 22.2595 57.2596 22.2595Z" fill="url(#paint5_linear)"/>
<path d="M67.1465 42.5369L59.1133 39.3235C59.0698 39.3062 59.0296 39.284 58.9889 39.2627C64.5374 38.0002 67.1651 35.889 67.2817 35.7934C67.5591 35.5661 67.6976 35.2103 67.6469 34.8553C67.6353 34.7741 66.4856 26.6337 66.4856 18.5988C66.4856 10.9274 60.2445 4.68634 52.5732 4.68634C44.9018 4.68634 38.6609 10.9273 38.6609 18.5988C38.6609 20.7007 38.5654 23.2716 38.4101 25.7053L36.1716 26.8246L29.6009 23.5394C29.582 23.53 29.5622 23.5231 29.5429 23.5149C29.8554 22.604 30.0598 21.6434 30.1349 20.6466C31.5093 20.2219 32.5108 18.9393 32.5108 17.4272C32.5108 16.4088 32.0558 15.4952 31.3393 14.877V8.0547C31.3393 6.17002 30.387 4.40661 28.8254 3.34703C28.2963 1.381 26.5299 0 24.4561 0H15.0837C9.99639 0 5.85748 4.13891 5.85748 9.22625V14.8769C5.14093 15.495 4.68593 16.4087 4.68593 17.4271C4.68593 18.9392 5.6874 20.2218 7.06184 20.6464C7.32079 24.0889 9.09486 27.1135 11.7152 29.0602V31.8943L3.23533 34.4383C1.3002 35.0189 0 36.7663 0 38.7868V50.2304C0 50.7966 0.459104 51.2557 1.0254 51.2557H1.17155V63.1174C1.17155 63.6837 1.63065 64.1428 2.19695 64.1428C2.76324 64.1428 3.22234 63.6837 3.22234 63.1174V51.2557H7.0293V63.1174C7.0293 63.6837 7.4884 64.1428 8.0547 64.1428C8.62099 64.1428 9.08009 63.6837 9.08009 63.1174V45.4368C9.08009 44.5375 8.81636 43.6666 8.31761 42.9185L6.56486 40.2893C6.25068 39.8181 5.61398 39.6909 5.14298 40.0048C4.67171 40.3189 4.54442 40.9556 4.8586 41.4268L6.61135 44.0561C6.88479 44.4663 7.02944 44.9437 7.02944 45.4368V49.205H2.19695H2.05079V38.7868C2.05079 37.679 2.76365 36.721 3.82487 36.4025L7.34498 35.3465C8.57081 40.4792 13.2263 44.2265 18.5986 44.2265C20.5287 44.2265 22.4031 43.7505 24.0816 42.8449C24.6951 43.6818 25.6845 44.2265 26.7994 44.2265H26.9455V44.3726C26.9455 47.8101 28.8366 50.8125 31.6317 52.3997V54.0722C31.6317 54.1351 31.5915 54.1908 31.5318 54.2108L27.7068 55.4859C25.85 56.1048 24.6024 57.8357 24.6024 59.7929V63.1174C24.6024 63.6837 25.0615 64.1428 25.6278 64.1428C26.1941 64.1428 26.6532 63.6837 26.6532 63.1174V59.7929C26.6532 58.7198 27.3372 57.7707 28.3552 57.4315L29.48 57.0565C30.9681 59.2757 33.4707 60.6283 36.1716 60.6283C38.8754 60.6283 41.3757 59.2765 42.8635 57.0566L43.988 57.4315C45.006 57.7708 45.69 58.7198 45.69 59.7929V63.1174C45.69 63.6837 46.1491 64.1428 46.7154 64.1428C47.2817 64.1428 47.7408 63.6837 47.7408 63.1174V59.7929C47.7408 57.8357 46.4933 56.1048 44.6365 55.486L40.8115 54.2109C40.7517 54.191 40.7115 54.1353 40.7115 54.0723V52.3998C42.8043 51.2115 44.3883 49.2296 45.0528 46.8653C46.9905 48.8928 49.6969 50.0845 52.573 50.0845C57.1138 50.0845 61.0979 47.1492 62.4703 42.8755L66.3845 44.4411C67.3351 44.8213 67.9492 45.7286 67.9492 46.7522V51.5482H67.8031H64.1423V50.2305C64.1423 49.6642 63.6831 49.2051 63.1169 49.2051C62.5506 49.2051 62.0915 49.6642 62.0915 50.2305V63.1175C62.0915 63.6838 62.5506 64.1429 63.1169 64.1429C63.6831 64.1429 64.1423 63.6838 64.1423 63.1175V53.599H66.7777V63.1175C66.7777 63.6838 67.2368 64.1429 67.8031 64.1429C68.3693 64.1429 68.8285 63.6838 68.8285 63.1175V53.599H68.9746C69.2465 53.599 69.5073 53.491 69.6996 53.2988C69.892 53.1064 70 52.8457 70 52.5736V46.7522C70.0004 44.8849 68.8803 43.2303 67.1465 42.5369ZM40.7118 18.5986C40.7118 12.0581 46.0329 6.73699 52.5735 6.73699C59.114 6.73699 64.435 12.0581 64.435 18.5986C64.435 25.4843 65.2642 32.4448 65.5336 34.5236C64.6148 35.1248 62.2621 36.4487 58.2851 37.3188V35.6871C58.8297 35.3784 59.3512 35.026 59.8415 34.6298C61.8592 32.9989 63.285 30.7147 63.856 28.1983C64.0463 27.3598 64.1428 26.495 64.1428 25.6281C64.1428 19.8324 59.9514 19.0003 55.8979 18.1956C53.3187 17.6836 50.6517 17.1541 48.5279 15.4551C48.2202 15.2088 47.7985 15.1608 47.4432 15.3316C47.0879 15.5024 46.862 15.8615 46.862 16.2558C46.862 16.283 46.8173 18.981 42.9525 19.9472C42.403 20.0846 42.069 20.6414 42.2064 21.1908C42.3437 21.7403 42.9005 22.0741 43.4499 21.9369C46.6847 21.1282 48.0043 19.3136 48.5424 17.9502C50.766 19.2679 53.2569 19.7623 55.4986 20.2073C59.8311 21.0674 62.092 21.6992 62.092 25.6282C62.092 26.3427 62.0126 27.0547 61.856 27.7446C61.3864 29.8137 60.2132 31.6925 58.5522 33.0351C56.8432 34.4166 54.7757 35.1466 52.5735 35.1466C50.5659 35.1466 48.6552 34.5308 47.0337 33.3672C46.4397 31.7459 45.4855 30.2625 44.2265 29.0402V24.4567C44.2265 24.1012 44.0424 23.7712 43.7401 23.5844C43.4379 23.3976 43.0605 23.3805 42.7425 23.5396L40.5286 24.6464C40.65 22.511 40.7118 20.4807 40.7118 18.5986ZM42.1757 26.1155V29.8265L38.4645 27.971L42.1757 26.1155ZM30.1679 26.1155L33.8788 27.971L30.1679 29.8265V26.1155ZM24.6024 37.3433V38.3172C23.8682 38.9511 23.4309 39.8789 23.4309 40.8578C21.9704 41.7207 20.3113 42.1757 18.5985 42.1757C14.1382 42.1757 10.2793 39.0369 9.31388 34.7559L11.8472 33.9959C12.4721 37.1524 15.2613 39.5403 18.5986 39.5403C21.2487 39.5403 23.5521 38.034 24.7019 35.8335C24.6362 36.3314 24.6024 36.8357 24.6024 37.3433ZM13.7663 32.6555V30.2802C15.2377 30.9597 16.8745 31.3394 18.5986 31.3394C20.3227 31.3394 21.9596 30.9596 23.431 30.2804V32.657C23.431 35.3215 21.2633 37.4893 18.5986 37.4893C15.9385 37.4893 13.7738 35.3286 13.7666 32.6701C13.7666 32.6652 13.7663 32.6602 13.7663 32.6555ZM18.5986 29.2886C13.35 29.2886 9.08009 25.0187 9.08009 19.7702C9.08009 19.2039 8.62099 18.7448 8.0547 18.7448C7.32817 18.7448 6.73699 18.1536 6.73699 17.4271C6.73699 16.7006 7.32803 16.1094 8.0547 16.1094H10.3978C10.8391 16.1094 11.231 15.8271 11.3706 15.4083L12.3117 12.5848C14.6681 12.5316 21.9729 12.2003 26.0864 10.1435C26.5929 9.89016 26.7983 9.27437 26.5449 8.76783C26.2917 8.26128 25.6759 8.05593 25.1692 8.30927C20.7558 10.5159 11.6604 10.5441 11.5691 10.5441C11.1277 10.5442 10.7359 10.8265 10.5964 11.2453L9.65869 14.0587H8.0547C8.00575 14.0587 7.95708 14.0604 7.90854 14.0624V9.22625C7.90854 5.26972 11.1275 2.05079 15.084 2.05079H24.4564C25.6809 2.05079 26.7095 2.93332 26.9027 4.14903C26.9518 4.45801 27.1392 4.72763 27.4117 4.8813C28.5695 5.53427 29.2887 6.75012 29.2887 8.05456V14.0622C29.2402 14.06 29.1917 14.0585 29.1426 14.0585H27.971C27.4048 14.0585 26.9456 14.5176 26.9456 15.0839C26.9456 15.6502 27.4048 16.1093 27.971 16.1093H29.1426C29.8691 16.1093 30.4603 16.7003 30.4603 17.427C30.4603 18.1536 29.8693 18.7447 29.1426 18.7447C28.5763 18.7447 28.1172 19.2038 28.1172 19.7701C28.1172 25.0186 23.8473 29.2886 18.5986 29.2886ZM25.4817 32.6572V29.0602C26.5017 28.3023 27.3933 27.3818 28.1171 26.3356V29.0401C26.9688 30.1549 26.0737 31.4866 25.4744 32.9424C25.4784 32.8477 25.4817 32.7528 25.4817 32.6572ZM40.8174 56.3744C39.6885 57.7535 37.9926 58.5774 36.1718 58.5774C34.3531 58.5774 32.6561 57.7529 31.5268 56.3743L32.1804 56.1565C33.0789 55.857 33.6826 55.0194 33.6826 54.0723V53.255C34.4751 53.4774 35.3093 53.599 36.1719 53.599C37.0345 53.599 37.8687 53.4774 38.6611 53.255V54.0723C38.661 55.0192 39.2646 55.8569 40.1633 56.1563L40.8174 56.3744ZM44.3727 42.1757C43.8065 42.1757 43.3473 42.6348 43.3473 43.2011V44.2206C43.3473 44.2295 43.3472 44.2383 43.3473 44.2472V44.3726C43.3472 48.3291 40.1283 51.5481 36.1718 51.5481C32.2152 51.5481 28.9964 48.3291 28.9964 44.3726V43.2011C28.9964 42.6348 28.5373 42.1757 27.971 42.1757H26.7995C26.073 42.1757 25.4818 41.5846 25.4818 40.858C25.4818 40.3904 25.7293 39.9672 26.1436 39.7261C26.2362 39.6722 26.3167 39.604 26.3865 39.5269C28.9212 39.4534 37.138 38.9764 42.5382 35.8905C43.0299 35.6096 43.2008 34.9833 42.9198 34.4915C42.6389 33.9997 42.0123 33.8289 41.5208 34.1099C36.79 36.8131 29.3563 37.3544 26.6533 37.4625V37.3433C26.6533 35.4362 27.2308 33.5893 28.2773 32.0322C28.3592 32.1619 28.4687 32.2746 28.6035 32.3578C28.7683 32.4595 28.9552 32.511 29.1426 32.511C29.2993 32.511 29.4564 32.475 29.6012 32.4027L36.1719 29.1173L42.7426 32.4027C42.8874 32.475 43.0445 32.511 43.2012 32.511C43.3888 32.511 43.5757 32.4595 43.7403 32.3578C43.8749 32.2746 43.9845 32.1618 44.0664 32.0322C45.1128 33.5893 45.6903 35.4362 45.6903 37.3433V38.8398C45.6903 39.2049 45.8843 39.5424 46.2 39.7261C46.6145 39.9674 46.862 40.3904 46.862 40.858C46.862 41.5845 46.2708 42.1757 45.5443 42.1757H44.3727V42.1757ZM52.5735 48.0334C49.7346 48.0334 47.1008 46.5881 45.5677 44.2259C47.4142 44.2132 48.9127 42.7075 48.9127 40.8581C48.9127 39.8792 48.4753 38.9513 47.7411 38.3173V37.3434C47.7411 36.9307 47.7188 36.5203 47.6752 36.1136C49.1957 36.8265 50.8557 37.1972 52.5735 37.1972C53.8238 37.1972 55.0602 36.99 56.2343 36.5985V38.1C56.2343 39.4854 57.0654 40.7132 58.3516 41.2276L60.5628 42.1121C59.5031 45.6159 56.2669 48.0334 52.5735 48.0334Z" fill="url(#paint6_linear)"/>
<path d="M39.1609 45.9192C38.721 45.5625 38.0753 45.6298 37.7186 46.0698C37.3042 46.5806 36.755 46.8618 36.1719 46.8618C35.5888 46.8618 35.0395 46.5806 34.6252 46.0698C34.2685 45.6299 33.6226 45.5625 33.1829 45.9192C32.7431 46.2759 32.6757 46.9217 33.0324 47.3615C33.8319 48.3471 34.9762 48.9126 36.1719 48.9126C37.3677 48.9126 38.5119 48.3472 39.3114 47.3616C39.668 46.9218 39.6006 46.2759 39.1609 45.9192Z" fill="url(#paint7_linear)"/>
<path d="M32.676 43.0596C33.2423 43.0596 33.7014 42.6005 33.7014 42.0342C33.7014 41.4679 33.2423 41.0088 32.676 41.0088C32.1097 41.0088 31.6506 41.4679 31.6506 42.0342C31.6506 42.6005 32.1097 43.0596 32.676 43.0596Z" fill="url(#paint8_linear)"/>
<path d="M39.6487 43.0596C40.215 43.0596 40.6741 42.6005 40.6741 42.0342C40.6741 41.4679 40.215 41.0088 39.6487 41.0088C39.0824 41.0088 38.6233 41.4679 38.6233 42.0342C38.6233 42.6005 39.0824 43.0596 39.6487 43.0596Z" fill="url(#paint9_linear)"/>
<defs>
<linearGradient id="paint0_linear" x1="20.3671" y1="24.5151" x2="18.7365" y2="21.1059" gradientUnits="userSpaceOnUse">
<stop stop-color="#F8A822"/>
<stop offset="1" stop-color="#FCD41F"/>
</linearGradient>
<linearGradient id="paint1_linear" x1="14.4508" y1="18.6573" x2="12.5533" y2="17.4497" gradientUnits="userSpaceOnUse">
<stop stop-color="#F8A822"/>
<stop offset="1" stop-color="#FCD41F"/>
</linearGradient>
<linearGradient id="paint2_linear" x1="23.8232" y1="18.6573" x2="21.9257" y2="17.4497" gradientUnits="userSpaceOnUse">
<stop stop-color="#F8A822"/>
<stop offset="1" stop-color="#FCD41F"/>
</linearGradient>
<linearGradient id="paint3_linear" x1="54.3419" y1="30.3727" x2="52.7112" y2="26.9636" gradientUnits="userSpaceOnUse">
<stop stop-color="#F8A822"/>
<stop offset="1" stop-color="#FCD41F"/>
</linearGradient>
<linearGradient id="paint4_linear" x1="48.4255" y1="24.5152" x2="46.5281" y2="23.3076" gradientUnits="userSpaceOnUse">
<stop stop-color="#F8A822"/>
<stop offset="1" stop-color="#FCD41F"/>
</linearGradient>
<linearGradient id="paint5_linear" x1="57.798" y1="24.5152" x2="55.9005" y2="23.3076" gradientUnits="userSpaceOnUse">
<stop stop-color="#F8A822"/>
<stop offset="1" stop-color="#FCD41F"/>
</linearGradient>
<linearGradient id="paint6_linear" x1="53.375" y1="44.9001" x2="11.8408" y2="-0.426788" gradientUnits="userSpaceOnUse">
<stop stop-color="#F8A822"/>
<stop offset="1" stop-color="#FCD41F"/>
</linearGradient>
<linearGradient id="paint7_linear" x1="37.9403" y1="47.9459" x2="36.3096" y2="44.5367" gradientUnits="userSpaceOnUse">
<stop stop-color="#F8A822"/>
<stop offset="1" stop-color="#FCD41F"/>
</linearGradient>
<linearGradient id="paint8_linear" x1="33.2143" y1="42.4443" x2="31.8813" y2="41.1113" gradientUnits="userSpaceOnUse">
<stop stop-color="#F8A822"/>
<stop offset="1" stop-color="#FCD41F"/>
</linearGradient>
<linearGradient id="paint9_linear" x1="40.187" y1="42.4443" x2="38.854" y2="41.1113" gradientUnits="userSpaceOnUse">
<stop stop-color="#F8A822"/>
<stop offset="1" stop-color="#FCD41F"/>
</linearGradient>
</defs>
</svg>
