<svg width="88" height="70" viewBox="0 0 88 70" fill="none" xmlns="http://www.w3.org/2000/svg">
<path d="M83.125 11.6667H80.2083V4.375C80.2083 1.96292 78.2454 0 75.8333 0H70C67.5879 0 65.625 1.96292 65.625 4.375V16.0417H62.1921L61.8712 15.225C60.3254 11.2919 56.5965 8.75 52.3702 8.75H52.2317C51.6279 7.05688 50.0238 5.83333 48.125 5.83333C47.0006 5.83333 45.9842 6.27229 45.2083 6.97083C44.4325 6.27083 43.416 5.83333 42.2917 5.83333C41.1673 5.83333 40.1508 6.27229 39.375 6.97083C38.5992 6.27083 37.5827 5.83333 36.4583 5.83333C35.334 5.83333 34.3175 6.27229 33.5417 6.97083C32.7658 6.27083 31.7494 5.83333 30.625 5.83333C28.2129 5.83333 26.25 7.79625 26.25 10.2083V16.0417H21.875V4.375C21.875 1.96292 19.9121 0 17.5 0H11.6667C9.25458 0 7.29167 1.96292 7.29167 4.375V11.6667H4.375C1.96292 11.6667 0 13.6296 0 16.0417V30.625C0 33.0371 1.96292 35 4.375 35H7.29167V42.2917C7.29167 44.7038 9.25458 46.6667 11.6667 46.6667H17.5C19.9121 46.6667 21.875 44.7038 21.875 42.2917V30.625H25.1825L26.3185 34.2198C26.3696 34.3831 26.4498 34.5362 26.5548 34.6733L30.4471 39.709L27.9533 65.9094C27.8527 66.955 28.1998 68.0006 28.9071 68.7779C29.6144 69.5538 30.6206 70 31.6721 70H51.4412C52.4956 70 53.5048 69.5523 54.2106 68.7706C54.9179 67.989 55.2635 66.9404 55.1585 65.8904L52.6108 40.4119C52.5831 40.145 52.6896 39.8825 52.8923 39.709L60.8942 32.8504C61.5942 32.2496 62.0856 31.4738 62.3846 30.625H65.625V42.2917C65.625 44.7038 67.5879 46.6667 70 46.6667H75.8333C78.2454 46.6667 80.2083 44.7038 80.2083 42.2917V35H83.125C85.5371 35 87.5 33.0371 87.5 30.625V16.0417C87.5 13.6296 85.5371 11.6667 83.125 11.6667ZM7.29167 32.0833H4.375C3.57 32.0833 2.91667 31.4285 2.91667 30.625V16.0417C2.91667 15.2381 3.57 14.5833 4.375 14.5833H7.29167V32.0833ZM18.9583 17.5V29.1667V42.2917C18.9583 43.0952 18.305 43.75 17.5 43.75H11.6667C10.8617 43.75 10.2083 43.0952 10.2083 42.2917V33.5417V13.125V4.375C10.2083 3.57146 10.8617 2.91667 11.6667 2.91667H17.5C18.305 2.91667 18.9583 3.57146 18.9583 4.375V17.5ZM46.6667 10.2083C46.6667 9.40479 47.32 8.75 48.125 8.75C48.93 8.75 49.5833 9.40479 49.5833 10.2083V17.5V18.8023C49.5833 19.3565 49.3121 19.8567 48.9183 20.1483C48.876 20.1775 48.8367 20.2096 48.7915 20.2344C48.7142 20.2796 48.6296 20.3044 48.545 20.3306C48.4517 20.3598 48.3569 20.3802 48.2563 20.389C48.1381 20.3977 48.0229 20.389 47.9092 20.3715C47.8246 20.3583 47.74 20.3481 47.6613 20.3219C47.5446 20.2825 47.4367 20.2183 47.3317 20.1483C47.269 20.106 47.2004 20.074 47.145 20.0229C47.0415 19.9281 46.9656 19.8115 46.8942 19.6933C46.8635 19.6423 46.8198 19.6015 46.795 19.546C46.7148 19.3638 46.6667 19.164 46.6667 18.9583V10.2083ZM40.8333 10.2083C40.8333 9.40479 41.4867 8.75 42.2917 8.75C43.0967 8.75 43.75 9.40479 43.75 10.2083V18.9583C43.75 19.7619 43.0967 20.4167 42.2917 20.4167C41.4867 20.4167 40.8333 19.7619 40.8333 18.9583V10.2083ZM35 10.2083C35 9.40479 35.6533 8.75 36.4583 8.75C37.2633 8.75 37.9167 9.40479 37.9167 10.2083V18.9583C37.9167 19.7619 37.2633 20.4167 36.4583 20.4167C35.6533 20.4167 35 19.7619 35 18.9583V10.2083ZM29.1667 17.5V10.2083C29.1667 9.40479 29.82 8.75 30.625 8.75C31.43 8.75 32.0833 9.40479 32.0833 10.2083V18.9583C32.0833 19.164 32.0352 19.3637 31.9535 19.5475C31.9287 19.6029 31.885 19.6437 31.8544 19.6948C31.7829 19.8129 31.7071 19.9281 31.6035 20.0244C31.5496 20.074 31.481 20.1075 31.4198 20.1483C31.3133 20.2183 31.2054 20.284 31.0858 20.3233C31.01 20.3496 30.9269 20.3583 30.8467 20.3715C30.73 20.389 30.6133 20.3992 30.4923 20.389C30.3931 20.3802 30.2983 20.3598 30.2065 20.3306C30.1204 20.3029 30.0358 20.2781 29.9571 20.2329C29.9119 20.2096 29.874 20.1775 29.8331 20.1483C29.4394 19.8567 29.1667 19.355 29.1667 18.8008V17.5V17.5ZM21.875 27.7083V18.9583H26.25C26.25 20.5596 27.1235 21.9465 28.4098 22.7092C28.4885 22.7573 28.5702 22.7967 28.6519 22.8404C28.7831 22.9075 28.9129 22.9746 29.05 23.0271C29.2031 23.0883 29.3635 23.1321 29.5254 23.1744C29.6217 23.1992 29.715 23.2313 29.8142 23.2502C29.8448 23.256 29.871 23.2677 29.9017 23.2735C30.0038 23.291 30.1044 23.2808 30.2065 23.291C30.3465 23.3042 30.4821 23.3333 30.625 23.3333C30.6673 23.3333 30.7067 23.3217 30.7475 23.3202C30.8817 23.3158 31.0115 23.2954 31.1427 23.2808C31.3177 23.2604 31.4898 23.2371 31.6575 23.1963C31.7829 23.1656 31.9025 23.1233 32.025 23.0825C32.1883 23.0271 32.3488 22.9658 32.5033 22.8929C32.6215 22.836 32.7352 22.7719 32.849 22.7048C32.9948 22.6173 33.1333 22.524 33.269 22.4204C33.3302 22.3738 33.4002 22.3417 33.4585 22.2921C33.4877 22.2673 33.5154 22.244 33.5431 22.2192C33.6277 22.295 33.7269 22.3548 33.8173 22.4233C33.9077 22.4933 33.9952 22.5648 34.0915 22.6275C34.2285 22.7165 34.3758 22.7879 34.5231 22.8623C34.6208 22.9104 34.7127 22.9658 34.8133 23.0067C34.9825 23.0752 35.1619 23.1233 35.3398 23.17C35.4302 23.1933 35.5148 23.2283 35.6081 23.2473C35.8838 23.3013 36.1667 23.3333 36.4583 23.3333C36.75 23.3333 37.0329 23.3013 37.3085 23.2473C37.4033 23.2283 37.4894 23.1933 37.5813 23.1685C37.7577 23.1204 37.9356 23.0752 38.1033 23.0067C38.2069 22.9644 38.3002 22.909 38.3994 22.8594C38.5452 22.7865 38.691 22.715 38.8267 22.6275C38.9244 22.5648 39.0119 22.4919 39.1023 22.4219C39.1927 22.3533 39.2904 22.2935 39.375 22.2177C39.4596 22.2935 39.5573 22.3519 39.6477 22.4219C39.7396 22.4919 39.8271 22.5663 39.9248 22.629C40.0604 22.7165 40.2063 22.7879 40.3521 22.8608C40.4513 22.9104 40.5446 22.9658 40.6481 23.0081C40.8158 23.0767 40.9923 23.1233 41.1702 23.17C41.2621 23.1948 41.3496 23.2298 41.4429 23.2487C41.7171 23.3012 42 23.3333 42.2917 23.3333C42.5833 23.3333 42.8663 23.3013 43.1419 23.2473C43.2338 23.2283 43.3198 23.1948 43.4102 23.17C43.5896 23.1219 43.7675 23.0752 43.9367 23.0067C44.0388 22.9658 44.1306 22.9104 44.2283 22.8608C44.3756 22.7879 44.5215 22.715 44.6585 22.626C44.7548 22.5633 44.8408 22.4919 44.9327 22.4219C45.0231 22.3533 45.1223 22.2935 45.2069 22.2177C45.2346 22.2425 45.2623 22.2673 45.2915 22.2906C45.3498 22.3402 45.4198 22.3723 45.4796 22.419C45.6152 22.5225 45.7552 22.6173 45.904 22.7063C46.0148 22.7719 46.1256 22.8346 46.2423 22.89C46.4027 22.9673 46.5675 23.0285 46.7381 23.0869C46.8533 23.1262 46.9671 23.1656 47.0852 23.1948C47.2631 23.2385 47.4454 23.2619 47.6292 23.2838C47.7517 23.2983 47.8713 23.3173 47.9952 23.3202C48.039 23.3217 48.0798 23.3333 48.125 23.3333C48.2708 23.3333 48.4094 23.3042 48.5508 23.2896C48.65 23.2808 48.7492 23.2896 48.8498 23.2735C48.8833 23.2677 48.914 23.256 48.9475 23.2502C49.0131 23.2371 49.0758 23.2181 49.14 23.2021C49.3267 23.1569 49.5075 23.1029 49.6825 23.0329C49.7788 22.9965 49.8721 22.9571 49.964 22.9133C50.066 22.8638 50.1652 22.8083 50.2629 22.7515C51.329 22.1477 52.1223 21.1254 52.3921 19.896C52.4562 20.0594 52.5 20.2329 52.5 20.4167V25.6463L50.4379 27.7083H21.875ZM59.7917 28.9056C59.7917 29.5721 59.5015 30.2021 58.9969 30.6367L50.9965 37.4937C50.069 38.2885 49.5877 39.4873 49.7087 40.7035L52.2565 66.1821C52.2871 66.4985 52.1398 66.7144 52.0479 66.815C51.9575 66.9142 51.7562 67.0833 51.4398 67.0833H31.6721C31.3571 67.0833 31.1558 66.9156 31.0654 66.815C30.975 66.7144 30.8263 66.5 30.8554 66.185L33.4046 39.41C33.4396 39.041 33.3331 38.6735 33.1071 38.379L29.0208 33.094L28.2406 30.625H50.4379C51.205 30.625 51.9575 30.3144 52.5 29.7704L54.5621 27.7083C55.1133 27.1571 55.4167 26.425 55.4167 25.6463V20.4167C55.4167 18.5179 54.1931 16.9138 52.5 16.31V11.6681C55.4648 11.7192 58.0679 13.5217 59.1558 16.291L59.7042 17.6692C59.761 17.7844 59.7917 17.9113 59.7917 18.0367V28.9056ZM65.625 27.7083H62.7083V18.9583H65.625V27.7083ZM77.2917 13.125V33.5417V42.2917C77.2917 43.0952 76.6383 43.75 75.8333 43.75H70C69.195 43.75 68.5417 43.0952 68.5417 42.2917V29.1667V17.5V4.375C68.5417 3.57146 69.195 2.91667 70 2.91667H75.8333C76.6383 2.91667 77.2917 3.57146 77.2917 4.375V13.125ZM84.5833 30.625C84.5833 31.4285 83.93 32.0833 83.125 32.0833H80.2083V14.5833H83.125C83.93 14.5833 84.5833 15.2381 84.5833 16.0417V30.625Z" fill="url(#paint0_linear)"/>
<defs>
<linearGradient id="paint0_linear" x1="66.7188" y1="49" x2="22.3285" y2="-6.48781" gradientUnits="userSpaceOnUse">
<stop stop-color="#F8A822"/>
<stop offset="1" stop-color="#FCD41F"/>
</linearGradient>
</defs>
</svg>
