<svg width="26" height="25" viewBox="0 0 26 25" fill="none" xmlns="http://www.w3.org/2000/svg">
<path d="M18.2731 15.3822C18.0221 15.3837 17.7805 15.287 17.5998 15.1129L13.5218 11.1695C12.8957 10.5706 12.3974 9.85111 12.057 9.05437C11.7165 8.25762 11.541 7.40017 11.541 6.53374C11.541 5.6673 11.7165 4.80985 12.057 4.0131C12.3974 3.21636 12.8957 2.49683 13.5218 1.89793V1.89793C14.8036 0.679452 16.5045 0 18.2731 0C20.0416 0 21.7425 0.679452 23.0243 1.89793C23.6504 2.49683 24.1487 3.21636 24.4891 4.0131C24.8296 4.80985 25.0051 5.6673 25.0051 6.53374C25.0051 7.40017 24.8296 8.25762 24.4891 9.05437C24.1487 9.85111 23.6504 10.5706 23.0243 11.1695L18.9463 15.1129C18.7656 15.287 18.524 15.3837 18.2731 15.3822ZM18.2731 1.91716C17.0003 1.90937 15.775 2.39951 14.8587 3.2829V3.2829C14.4175 3.70164 14.0662 4.2058 13.8261 4.76468C13.586 5.32356 13.4622 5.92547 13.4622 6.53374C13.4622 7.142 13.586 7.74391 13.8261 8.30279C14.0662 8.86167 14.4175 9.36583 14.8587 9.78457L18.2731 13.0835L21.6874 9.78457C22.1286 9.36583 22.4799 8.86167 22.72 8.30279C22.9601 7.74391 23.0839 7.142 23.0839 6.53374C23.0839 5.92547 22.9601 5.32356 22.72 4.76468C22.4799 4.2058 22.1286 3.70164 21.6874 3.2829C20.77 2.40125 19.5454 1.91141 18.2731 1.91716V1.91716Z" fill="#3B394A"/>
<path d="M7.69429 24.9998C7.52581 25.0009 7.35998 24.9578 7.2134 24.8747L0.4809 21.0276C0.334128 20.9429 0.212352 20.8208 0.127904 20.6739C0.0434562 20.527 -0.000665252 20.3603 7.58164e-06 20.1908V2.87869C-0.000665252 2.70922 0.0434562 2.54257 0.127904 2.39563C0.212352 2.24869 0.334128 2.12668 0.4809 2.04194C0.62711 1.95753 0.792965 1.91309 0.961793 1.91309C1.13062 1.91309 1.29648 1.95753 1.44269 2.04194L8.17519 5.88908C8.32196 5.97382 8.44373 6.09584 8.52818 6.24278C8.61263 6.38972 8.65675 6.55636 8.65608 6.72584V24.038C8.65675 24.2075 8.61263 24.3741 8.52818 24.521C8.44373 24.668 8.32196 24.79 8.17519 24.8747C8.02861 24.9578 7.86277 25.0009 7.69429 24.9998V24.9998ZM1.92358 19.633L6.73251 22.3837V7.28367L1.92358 4.53297V19.633Z" fill="#3B394A"/>
<path d="M7.69422 25.0002C7.52573 25.0014 7.3599 24.9582 7.21332 24.8752C7.06655 24.7904 6.94477 24.6684 6.86033 24.5215C6.77588 24.3745 6.73176 24.2079 6.73243 24.0384V6.72626C6.73176 6.55678 6.77588 6.39014 6.86033 6.2432C6.94477 6.09626 7.06655 5.97424 7.21332 5.88951L12.984 2.59058C13.0944 2.52738 13.2162 2.48669 13.3423 2.47086C13.4685 2.45503 13.5966 2.46438 13.7191 2.49837C13.8417 2.53236 13.9562 2.59031 14.0562 2.66887C14.1562 2.74743 14.2397 2.84505 14.3017 2.95606C14.4271 3.1769 14.46 3.43837 14.3934 3.68342C14.3267 3.92847 14.1658 4.13721 13.9458 4.26409L8.656 7.2841V22.3841L13.9458 19.3545C14.0557 19.2914 14.177 19.2505 14.3026 19.2342C14.4283 19.2179 14.556 19.2265 14.6783 19.2595C14.8007 19.2926 14.9153 19.3494 15.0157 19.4268C15.1161 19.5041 15.2003 19.6005 15.2635 19.7104C15.3266 19.8203 15.3675 19.9415 15.3838 20.0672C15.4001 20.1929 15.3915 20.3205 15.3584 20.4429C15.3254 20.5652 15.2686 20.6799 15.1912 20.7803C15.1139 20.8807 15.0175 20.9649 14.9076 21.028L8.17511 24.8752C8.02853 24.9582 7.8627 25.0014 7.69422 25.0002V25.0002Z" fill="#3B394A"/>
<path d="M21.1591 25C20.9907 25.0012 20.8248 24.9581 20.6782 24.875L13.9457 21.0279C13.799 20.9431 13.6772 20.8211 13.5927 20.6742C13.5083 20.5272 13.4642 20.3606 13.4649 20.1911V11.535C13.4649 11.2799 13.5662 11.0353 13.7466 10.8549C13.9269 10.6746 14.1716 10.5732 14.4266 10.5732C14.6817 10.5732 14.9264 10.6746 15.1067 10.8549C15.2871 11.0353 15.3884 11.2799 15.3884 11.535V19.6333L20.1974 22.384V12.4968C20.1974 12.2417 20.2987 11.9971 20.4791 11.8167C20.6594 11.6364 20.9041 11.535 21.1591 11.535C21.4142 11.535 21.6589 11.6364 21.8392 11.8167C22.0196 11.9971 22.1209 12.2417 22.1209 12.4968V24.0382C22.1216 24.2077 22.0775 24.3744 21.993 24.5213C21.9086 24.6682 21.7868 24.7903 21.64 24.875C21.4935 24.9581 21.3276 25.0012 21.1591 25Z" fill="#3B394A"/>
<path d="M18.274 9.61105C17.7034 9.61105 17.1455 9.44182 16.671 9.12478C16.1965 8.80773 15.8267 8.3571 15.6083 7.82987C15.3899 7.30264 15.3328 6.72249 15.4441 6.16279C15.5554 5.60308 15.8303 5.08896 16.2338 4.68543C16.6373 4.28191 17.1514 4.00711 17.7111 3.89577C18.2708 3.78444 18.851 3.84158 19.3782 4.05997C19.9054 4.27835 20.3561 4.64818 20.6731 5.12267C20.9902 5.59717 21.1594 6.15502 21.1594 6.72569C21.1594 7.49093 20.8554 8.22484 20.3143 8.76595C19.7732 9.30706 19.0393 9.61105 18.274 9.61105ZM18.274 5.7639C18.0838 5.7639 17.8979 5.82031 17.7397 5.92599C17.5815 6.03168 17.4583 6.18189 17.3855 6.35763C17.3127 6.53337 17.2936 6.72676 17.3307 6.91333C17.3678 7.09989 17.4594 7.27127 17.5939 7.40578C17.7285 7.54028 17.8998 7.63189 18.0864 7.669C18.273 7.70611 18.4663 7.68706 18.6421 7.61426C18.8178 7.54147 18.968 7.4182 19.0737 7.26003C19.1794 7.10187 19.2358 6.91591 19.2358 6.72569C19.2358 6.47061 19.1345 6.22598 18.9541 6.04561C18.7737 5.86524 18.5291 5.7639 18.274 5.7639Z" fill="#3B394A"/>
</svg>
