<svg width="70" height="70" viewBox="0 0 70 70" fill="none" xmlns="http://www.w3.org/2000/svg">
<path d="M51.1338 14.7644H21.1784L41.6996 2.91653C42.3521 2.53946 43.1901 2.76409 43.5672 3.41706L48.1976 11.4371C48.5754 12.091 49.4115 12.3151 50.0652 11.9375C50.7191 11.56 50.9432 10.7239 50.5656 10.0699L45.9352 2.04987C44.8044 0.0913776 42.2908 -0.581962 40.3323 0.548702L15.7389 14.7478C15.7298 14.7531 15.7217 14.7593 15.7127 14.7647H4.1017C1.83996 14.7647 0 16.6047 0 18.8663V65.8984C0 68.1601 1.83996 70.0001 4.1017 70.0001H51.1338C53.3954 70.0001 55.2355 68.1601 55.2355 65.8984V18.8663C55.2353 16.6045 53.3954 14.7644 51.1338 14.7644ZM52.501 65.8982C52.501 66.6521 51.8876 67.2654 51.1338 67.2654H4.1017C3.34783 67.2654 2.73451 66.6521 2.73451 65.8982V18.8661C2.73451 18.1123 3.34783 17.499 4.1017 17.499H51.1338C51.8876 17.499 52.501 18.1123 52.501 18.8661V65.8982V65.8982Z" fill="url(#paint0_linear)"/>
<path d="M61.1553 28.5064C60.9009 28.2521 60.5483 28.1058 60.1887 28.1058C59.8292 28.1058 59.4764 28.2521 59.2223 28.5064C58.968 28.7607 58.8215 29.1135 58.8215 29.473C58.8215 29.8326 58.9678 30.1853 59.2223 30.4396C59.4766 30.6938 59.8293 30.8402 60.1887 30.8402C60.5483 30.8402 60.901 30.6939 61.1553 30.4396C61.4096 30.1853 61.5559 29.8326 61.5559 29.473C61.5559 29.1135 61.4098 28.7607 61.1553 28.5064Z" fill="url(#paint1_linear)"/>
<path d="M69.4513 42.7808L63.7944 32.9828C63.4168 32.3289 62.5809 32.105 61.9268 32.4825C61.2729 32.8599 61.0488 33.6961 61.4264 34.35L67.0833 44.1478C67.4603 44.8008 67.2358 45.6386 66.5829 46.0156L57.7903 51.0919C57.1364 51.4694 56.9123 52.3056 57.2899 52.9595C57.5432 53.3981 58.0026 53.6432 58.4752 53.6432C58.7071 53.6432 58.9423 53.5842 59.1575 53.4599L67.9501 48.3835C69.9085 47.2529 70.582 44.7396 69.4513 42.7808Z" fill="url(#paint2_linear)"/>
<path d="M35.9672 21.7276C35.713 21.4733 35.3603 21.327 35.0007 21.327C34.6412 21.327 34.2884 21.4733 34.0341 21.7276C33.7798 21.9819 33.6335 22.3346 33.6335 22.6942C33.6335 23.0538 33.7797 23.4065 34.0341 23.6608C34.2886 23.9151 34.6412 24.0614 35.0007 24.0614C35.3603 24.0614 35.713 23.9151 35.9672 23.6608C36.2215 23.4065 36.3679 23.0538 36.3679 22.6942C36.3679 22.3346 36.2216 21.9819 35.9672 21.7276Z" fill="url(#paint3_linear)"/>
<path d="M47.3056 21.327H41.9735C41.2185 21.327 40.6063 21.9391 40.6063 22.6942C40.6063 23.4493 41.2185 24.0614 41.9735 24.0614H45.9383V43.5538L35.0841 32.6997C34.8276 32.4434 34.4799 32.2993 34.1173 32.2993C33.7547 32.2993 33.4071 32.4434 33.1506 32.6997L25.9075 39.9428C25.3736 40.4767 25.3736 41.3424 25.9075 41.8763C26.4415 42.4102 27.3069 42.4102 27.8411 41.8763L34.1173 35.5999L45.9287 47.4113C45.9319 47.4145 45.9353 47.4171 45.9384 47.4201V54.1401H11.2309L21.1562 44.2147L28.5295 51.588C29.0635 52.1218 29.9289 52.1218 30.4631 51.588C30.997 51.0541 30.997 50.1884 30.4631 49.6543L22.1231 41.3144C21.8666 41.058 21.519 40.9139 21.1564 40.9139C20.7938 40.9139 20.4461 41.058 20.1896 41.3144L9.29726 52.2067V24.0614H27.6178C28.3728 24.0614 28.985 23.4493 28.985 22.6942C28.985 21.9391 28.3728 21.327 27.6178 21.327H7.92993C7.17497 21.327 6.56274 21.9391 6.56274 22.6942V55.5073C6.56274 56.2624 7.17497 56.8745 7.92993 56.8745H47.3056C48.0606 56.8745 48.6728 56.2624 48.6728 55.5073V22.6942C48.6728 21.9393 48.0606 21.327 47.3056 21.327Z" fill="url(#paint4_linear)"/>
<path d="M19.9159 27.2059C17.5035 27.2059 15.5408 29.1685 15.5408 31.5811C15.5408 33.9936 17.5034 35.9562 19.9159 35.9562C22.3283 35.9562 24.291 33.9936 24.291 31.5811C24.291 29.1685 22.3283 27.2059 19.9159 27.2059ZM19.9159 33.2217C19.0112 33.2217 18.2753 32.4857 18.2753 31.5811C18.2753 30.6764 19.0112 29.9404 19.9159 29.9404C20.8206 29.9404 21.5565 30.6765 21.5565 31.5811C21.5565 32.4857 20.8206 33.2217 19.9159 33.2217Z" fill="url(#paint5_linear)"/>
<defs>
<linearGradient id="paint0_linear" x1="42.1171" y1="49.0001" x2="-2.13548" y2="14.0814" gradientUnits="userSpaceOnUse">
<stop stop-color="#F8A822"/>
<stop offset="1" stop-color="#FCD41F"/>
</linearGradient>
<linearGradient id="paint1_linear" x1="60.9065" y1="30.0199" x2="59.1292" y2="28.2426" gradientUnits="userSpaceOnUse">
<stop stop-color="#F8A822"/>
<stop offset="1" stop-color="#FCD41F"/>
</linearGradient>
<linearGradient id="paint2_linear" x1="66.9377" y1="47.24" x2="54.6574" y2="39.8218" gradientUnits="userSpaceOnUse">
<stop stop-color="#F8A822"/>
<stop offset="1" stop-color="#FCD41F"/>
</linearGradient>
<linearGradient id="paint3_linear" x1="35.7185" y1="23.2411" x2="33.9412" y2="21.4637" gradientUnits="userSpaceOnUse">
<stop stop-color="#F8A822"/>
<stop offset="1" stop-color="#FCD41F"/>
</linearGradient>
<linearGradient id="paint4_linear" x1="38.6717" y1="46.2102" x2="15.8935" y2="19.2269" gradientUnits="userSpaceOnUse">
<stop stop-color="#F8A822"/>
<stop offset="1" stop-color="#FCD41F"/>
</linearGradient>
<linearGradient id="paint5_linear" x1="22.2129" y1="33.3311" x2="16.5252" y2="27.6434" gradientUnits="userSpaceOnUse">
<stop stop-color="#F8A822"/>
<stop offset="1" stop-color="#FCD41F"/>
</linearGradient>
</defs>
</svg>
