<svg width="41" height="50" viewBox="0 0 41 50" fill="none" xmlns="http://www.w3.org/2000/svg">
<path d="M20.0419 0C8.99371 0 0 8.99371 0 20.0419C0 21.2998 0.115304 22.5681 0.356394 23.805C0.366876 23.8784 0.408805 24.0985 0.492662 24.4759C0.796646 25.8281 1.24738 27.1593 1.83438 28.4277C3.99371 33.5115 8.74214 41.3208 19.1614 49.6855C19.4235 49.8952 19.7379 50 20.0524 50C20.3669 50 20.6813 49.8952 20.9434 49.6855C31.3522 41.3208 36.1111 33.5115 38.2704 28.4277C38.8574 27.1593 39.3082 25.8386 39.6122 24.4759C39.696 24.0985 39.7379 23.8784 39.7484 23.805C39.979 22.5681 40.1048 21.2998 40.1048 20.0419C40.0838 8.99371 31.0901 0 20.0419 0Z" fill="url(#paint0_linear)"/>
<path d="M20.0419 0C8.99371 0 0 8.99371 0 20.0419C0 21.2998 0.115304 22.5681 0.356394 23.805C0.366876 23.8784 0.408805 24.0985 0.492662 24.4759C0.796646 25.8281 1.24738 27.1593 1.83438 28.4277C3.99371 33.5115 8.74214 41.3208 19.1614 49.6855C19.4235 49.8952 19.7379 50 20.0524 50C20.3669 50 20.6813 49.8952 20.9434 49.6855C31.3522 41.3208 36.1111 33.5115 38.2704 28.4277C38.8574 27.1593 39.3082 25.8386 39.6122 24.4759C39.696 24.0985 39.7379 23.8784 39.7484 23.805C39.979 22.5681 40.1048 21.2998 40.1048 20.0419C40.0838 8.99371 31.0901 0 20.0419 0ZM36.9392 23.3124C36.9392 23.3333 36.9287 23.3543 36.9287 23.3753C36.9182 23.4277 36.8868 23.5849 36.8344 23.826C36.8344 23.8365 36.8344 23.8365 36.8344 23.847C36.5723 25.021 36.1845 26.1635 35.6709 27.2642C35.6604 27.2746 35.6604 27.2956 35.6499 27.3061C33.6897 31.9497 29.392 39.0356 20.0419 46.761C10.6918 39.0356 6.39413 31.9497 4.43396 27.3061C4.42348 27.2956 4.42348 27.2746 4.413 27.2642C3.90985 26.174 3.52201 25.021 3.24948 23.847C3.24948 23.8365 3.24948 23.8365 3.24948 23.826C3.18658 23.5849 3.16562 23.4277 3.15514 23.3753C3.15514 23.3543 3.14465 23.3333 3.14465 23.3019C2.93501 22.2222 2.83019 21.1321 2.83019 20.0314C2.83019 10.5451 10.5556 2.81971 20.0419 2.81971C29.5283 2.81971 37.2537 10.5451 37.2537 20.0314C37.2537 21.1426 37.1488 22.2432 36.9392 23.3124Z" fill="white"/>
<path d="M19.9984 11.665C15.4061 11.665 11.665 15.4061 11.665 19.9984C11.665 24.5906 15.4061 28.3317 19.9984 28.3317C24.5906 28.3317 28.3317 24.5906 28.3317 19.9984C28.3317 15.4061 24.5906 11.665 19.9984 11.665Z" fill="white"/>
<defs>
<linearGradient id="paint0_linear" x1="3.10812" y1="7.11892e-06" x2="34.3366" y2="2.26068" gradientUnits="userSpaceOnUse">
<stop stop-color="#0A92DB"/>
<stop offset="1" stop-color="#117BCD"/>
</linearGradient>
</defs>
</svg>
