<svg width="70" height="70" viewBox="0 0 70 70" fill="none" xmlns="http://www.w3.org/2000/svg">
<path d="M24.3088 28.2902C24.8434 27.7556 24.8434 26.8899 24.3088 26.3569C23.7759 25.8223 22.9101 25.8223 22.3756 26.3569C21.841 26.8899 21.841 27.7556 22.3756 28.2902C22.9101 28.8232 23.7759 28.8232 24.3088 28.2902Z" fill="url(#paint0_linear)"/>
<path d="M37.8439 30.2234C39.4429 28.6244 39.4429 26.0225 37.8439 24.4235C36.2412 22.8208 33.6457 22.8203 32.043 24.4235C30.4398 26.0263 30.4398 28.6202 32.043 30.2234C33.642 31.8224 36.2444 31.8229 37.8439 30.2234ZM33.9763 26.3568C34.5109 25.8228 35.3761 25.8228 35.9107 26.3568C36.4431 26.8898 36.4431 27.7566 35.9107 28.2896C35.3771 28.8226 34.5093 28.8231 33.9763 28.2896C33.4428 27.7566 33.4406 26.8925 33.9763 26.3568Z" fill="url(#paint1_linear)"/>
<path d="M32.043 39.8898C30.4398 41.4931 30.4398 44.088 32.043 45.6913C33.6457 47.294 36.2407 47.2945 37.8439 45.6913C39.4434 44.0918 39.4434 41.4893 37.8439 39.8898C36.2412 38.2876 33.6457 38.2871 32.043 39.8898V39.8898ZM35.9107 43.758C35.3761 44.2921 34.5104 44.2921 33.9763 43.758C33.4428 43.2245 33.4406 42.3593 33.9763 41.8236C34.5109 41.2891 35.3761 41.2896 35.9107 41.8236C36.4436 42.3566 36.4436 43.2245 35.9107 43.758Z" fill="url(#paint2_linear)"/>
<path d="M23.9349 37.2585C24.0828 37.9998 24.8038 38.4788 25.5435 38.3309L44.878 34.4633C45.6182 34.3153 46.0983 33.5949 45.9504 32.8547C45.8024 32.1139 45.082 31.6343 44.3418 31.7823L25.0073 35.6499C24.2665 35.7979 23.7864 36.5183 23.9349 37.2585Z" fill="url(#paint3_linear)"/>
<path d="M41.5637 7.73474C41.2011 7.73474 40.8534 7.8784 40.5971 8.13475L26.2432 22.4886C25.7092 23.0227 25.7092 23.8884 26.2432 24.4225C26.7773 24.9565 27.643 24.9565 28.1765 24.4225L41.5637 11.0352L58.9644 28.4364L28.271 59.1298L10.8698 41.7291L20.4428 32.1561C20.9769 31.6226 20.9769 30.7569 20.4428 30.2229C19.9087 29.6893 19.043 29.6893 18.509 30.2229L7.96988 40.7625C7.43582 41.296 7.43582 42.1617 7.96988 42.6958L27.3044 62.0303C27.8384 62.5643 28.7036 62.5643 29.2377 62.0303L61.8649 29.4031C62.3989 28.869 62.3989 28.0033 61.8649 27.4693L42.5304 8.13475C42.274 7.8784 41.9264 7.73474 41.5637 7.73474V7.73474Z" fill="url(#paint4_linear)"/>
<path d="M67.6658 0.401084L61.7975 6.26878C58.3737 3.68341 53.6457 3.64121 50.2507 6.16197L45.4441 1.21606C45.4393 1.21125 45.4351 1.20698 45.4302 1.20217C43.8355 -0.392526 41.2422 -0.409616 39.6282 1.20431L1.20223 39.7959C-0.400477 41.3986 -0.401011 43.9941 1.20223 45.5974L6.62506 51.0196C5.41381 54.4862 6.28753 58.4163 8.93593 61.0637C11.5838 63.7126 15.5139 64.5858 18.9805 63.3756L24.4033 68.7979C26.006 70.4006 28.6026 70.4001 30.2021 68.8L68.798 30.3698C70.4012 28.7665 70.4012 26.1726 68.798 24.5699C68.7931 24.5651 68.7889 24.5608 68.7841 24.556L63.8387 19.7505C66.3504 16.3785 66.3408 11.6483 63.7313 8.2026L69.599 2.33491C70.1331 1.80085 70.1331 0.935142 69.599 0.401084C69.065 -0.132974 68.1998 -0.132974 67.6658 0.401084V0.401084ZM60.9964 18.8672C60.738 19.1262 60.5938 19.4776 60.5959 19.844C60.5986 20.2098 60.7481 20.5596 61.0103 20.8144L66.87 26.509C67.4003 27.0452 67.3945 27.9061 66.8663 28.4338L28.271 66.8641C27.7374 67.3976 26.8696 67.3976 26.3366 66.8641L20.2729 60.8009C20.0112 60.5387 19.6609 60.4004 19.3063 60.4004C19.1097 60.4004 18.9116 60.4426 18.7257 60.5296C16.0966 61.7633 12.9392 61.2009 10.8697 59.1299C8.79867 57.0604 8.23631 53.9036 9.46998 51.2744C9.71458 50.7526 9.6067 50.1342 9.19922 49.7267L3.13606 43.6635C2.60253 43.13 2.60253 42.2627 3.13766 41.727L41.5642 3.13546C42.0961 2.60407 42.956 2.60087 43.4911 3.12959L49.1852 8.98927C49.6958 9.51479 50.57 9.56605 51.1329 9.00369C53.4732 6.66238 57.1379 6.41244 59.8375 8.22877L57.8321 10.2342C56.3074 9.50784 54.4243 9.77434 53.1639 11.0347C51.565 12.6342 51.565 15.2367 53.1639 16.8357C54.7666 18.4384 57.3622 18.4389 58.9654 16.8357C60.2546 15.5464 60.4805 13.6553 59.7676 12.1658L61.7724 10.161C63.5749 12.8291 63.3671 16.4971 60.9964 18.8672V18.8672ZM57.0316 12.968C57.5651 13.5015 57.5672 14.3667 57.0316 14.9024C56.4975 15.4364 55.6318 15.4364 55.0978 14.9024C54.5642 14.3688 54.5642 13.501 55.0972 12.968C55.6308 12.4355 56.4986 12.4345 57.0316 12.968V12.968Z" fill="url(#paint5_linear)"/>
<defs>
<linearGradient id="paint0_linear" x1="24.0602" y1="27.8697" x2="22.2831" y2="26.0919" gradientUnits="userSpaceOnUse">
<stop stop-color="#F8A822"/>
<stop offset="1" stop-color="#FCD41F"/>
</linearGradient>
<linearGradient id="paint1_linear" x1="37.0951" y1="28.9624" x2="31.7641" y2="23.6307" gradientUnits="userSpaceOnUse">
<stop stop-color="#F8A822"/>
<stop offset="1" stop-color="#FCD41F"/>
</linearGradient>
<linearGradient id="paint2_linear" x1="37.0954" y1="44.4319" x2="31.7618" y2="39.0999" gradientUnits="userSpaceOnUse">
<stop stop-color="#F8A822"/>
<stop offset="1" stop-color="#FCD41F"/>
</linearGradient>
<linearGradient id="paint3_linear" x1="40.7357" y1="36.377" x2="38.379" y2="28.4992" gradientUnits="userSpaceOnUse">
<stop stop-color="#F8A822"/>
<stop offset="1" stop-color="#FCD41F"/>
</linearGradient>
<linearGradient id="paint4_linear" x1="49.2751" y1="46.022" x2="13.7226" y2="10.4695" gradientUnits="userSpaceOnUse">
<stop stop-color="#F8A822"/>
<stop offset="1" stop-color="#FCD41F"/>
</linearGradient>
<linearGradient id="paint5_linear" x1="53.3753" y1="49" x2="7.8753" y2="3.49975" gradientUnits="userSpaceOnUse">
<stop stop-color="#F8A822"/>
<stop offset="1" stop-color="#FCD41F"/>
</linearGradient>
</defs>
</svg>
