<svg width="25" height="25" viewBox="0 0 25 25" fill="none" xmlns="http://www.w3.org/2000/svg">
<path d="M10.2949 20.5897C4.61824 20.5897 0 15.9715 0 10.2949C0 4.61824 4.61824 0 10.2949 0C15.9715 0 20.5897 4.61824 20.5897 10.2949C20.5897 15.9715 15.9715 20.5897 10.2949 20.5897V20.5897ZM10.2949 1.95163C5.69437 1.95163 1.95163 5.69437 1.95163 10.2949C1.95163 14.8953 5.69437 18.6381 10.2949 18.6381C14.8953 18.6381 18.6381 14.8953 18.6381 10.2949C18.6381 5.69437 14.8953 1.95163 10.2949 1.95163V1.95163ZM24.6951 24.7142C25.0762 24.3331 25.0762 23.7152 24.6951 23.3341L20.3283 18.9674C19.9472 18.5863 19.3293 18.5863 18.9483 18.9674C18.5672 19.3485 18.5672 19.9664 18.9483 20.3474L23.3151 24.7142C23.5056 24.9047 23.7553 24.9999 24.0051 24.9999C24.2549 24.9999 24.5045 24.9047 24.6951 24.7142V24.7142Z" fill="#4D5062"/>
</svg>
