<svg width="96" height="70" viewBox="0 0 96 70" fill="none" xmlns="http://www.w3.org/2000/svg">
<path d="M84.1266 31.5101C80.882 29.8879 74.7986 29.8691 74.5412 29.8691C73.7698 29.8691 73.1444 30.4945 73.1444 31.2659C73.1444 32.0373 73.7698 32.6627 74.5412 32.6627C76.111 32.6629 80.6687 32.9046 82.8773 34.0088C83.0779 34.1092 83.2909 34.1565 83.5008 34.1565C84.0131 34.1565 84.5065 33.8734 84.7512 33.3842C85.0963 32.6942 84.8166 31.8552 84.1266 31.5101Z" fill="url(#paint0_linear)"/>
<path d="M91.0903 51.3965L85.3216 49.7483C85.0726 49.6772 84.8987 49.4466 84.8987 49.1876V47.2621C85.368 46.9369 85.8157 46.573 86.2342 46.1668C88.2623 44.1987 89.3792 41.5588 89.3792 38.7332V36.0762L89.937 34.9608C90.5491 33.7363 90.8726 32.3654 90.8726 30.9966V23.7985C90.8726 23.0272 90.2472 22.4018 89.4758 22.4018H76.0346C71.147 22.4018 67.1705 26.3783 67.1705 31.2659V31.3491C67.1705 32.4874 67.4396 33.6273 67.9486 34.6453L68.6639 36.076V38.3574C68.6639 41.973 70.4457 45.217 73.1444 47.1691L73.1448 49.1872C73.1448 49.4984 73.1448 49.6273 71.9914 49.9569L69.1767 50.7611L61.0342 47.8003C61.0635 47.4161 60.9338 47.0254 60.6536 46.7309L58.0517 43.9973V39.4085C58.3267 39.1818 58.5979 38.949 58.8607 38.7028C62.1431 35.6262 64.0255 31.2824 64.0255 26.7854V23.1207C65.0167 20.9639 65.519 18.6815 65.519 16.331V1.39677C65.519 0.625381 64.8936 0 64.1222 0H43.2137C35.8555 0 29.8693 5.98637 29.8693 13.3444V16.3314C29.8693 18.6819 30.3716 20.9642 31.3627 23.121V26.2742C31.3627 31.4955 33.6843 36.1995 37.3366 39.3007V43.9975L34.7347 46.7311C34.4544 47.0255 34.3248 47.4163 34.354 47.8005L25.7602 50.9253C25.1374 51.1518 24.5588 51.4585 24.0334 51.8301L22.6839 51.1553C26.701 49.4068 27.9736 46.9475 28.0347 46.8253C28.2313 46.4322 28.2313 45.9692 28.0347 45.5761C27.0277 43.5621 26.9057 39.8707 26.8078 36.9047C26.7752 35.9173 26.7442 34.9844 26.6852 34.1538C26.209 27.4542 21.1158 22.4018 14.8378 22.4018C8.55978 22.4018 3.46641 27.454 2.99039 34.1538C2.93136 34.9846 2.90044 35.9175 2.86785 36.9051C2.76989 39.8709 2.64772 43.5619 1.64093 45.5759C1.44426 45.969 1.44426 46.432 1.64093 46.8251C1.70201 46.9473 2.97196 49.4015 6.99708 51.1522L3.2487 53.0263C1.2448 54.0289 0 56.0431 0 58.2833V68.6025C0 69.3739 0.625381 69.9992 1.39677 69.9992C2.16816 69.9992 2.79354 69.3739 2.79354 68.6025V58.2833C2.79354 57.1078 3.44667 56.0509 4.49797 55.5252L9.16561 53.1914L10.7892 54.7344C11.9245 55.8133 13.3809 56.3524 14.8378 56.3524C16.2944 56.3524 17.7515 55.8129 18.8864 54.7344L20.5098 53.1916L22.0317 53.9526C21.3151 55.0992 20.9084 56.4439 20.9084 57.8524V68.6029C20.9084 69.3742 21.5337 69.9996 22.3051 69.9996C23.0765 69.9996 23.7019 69.3742 23.7019 68.6029V57.8524C23.7019 55.9349 24.9126 54.2062 26.7148 53.5509L35.7756 50.2562L39.5474 55.9142C40.0296 56.6376 40.8023 57.1015 41.6673 57.1871C41.7638 57.1966 41.8597 57.2013 41.9555 57.2013C42.7187 57.2013 43.4496 56.9009 43.996 56.3547L46.2972 54.0535V68.603C46.2972 69.3744 46.9226 69.9998 47.6939 69.9998C48.4653 69.9998 49.0907 69.3744 49.0907 68.603V54.0535L51.3919 56.3547C51.9381 56.9011 52.6691 57.2015 53.4324 57.2015C53.528 57.2015 53.6241 57.1968 53.7204 57.1873C54.5856 57.1017 55.3583 56.6377 55.8405 55.9144L59.6125 50.2566L68.6731 53.5513C70.4751 54.2066 71.686 55.9353 71.686 57.8527V68.6032C71.686 69.3746 72.3114 70 73.0828 70C73.8542 70 74.4795 69.3746 74.4795 68.6032V57.8527C74.4795 55.9107 73.708 54.0893 72.4136 52.7422L72.7587 52.6437C73.1068 52.5443 73.5817 52.4081 74.0585 52.1744L77.6247 55.7406V68.6032C77.6247 69.3746 78.2501 70 79.0215 70C79.7929 70 80.4182 69.3746 80.4182 68.6032V55.7406L83.9597 52.1992C84.148 52.2949 84.3458 52.3757 84.554 52.4351L90.3228 54.0833C91.6395 54.4595 92.5593 55.6788 92.5593 57.0484V68.6032C92.5593 69.3746 93.1847 70 93.9561 70C94.7275 70 95.3529 69.3746 95.3529 68.6032V57.0484C95.3529 54.4377 93.6 52.1137 91.0903 51.3965ZM8.96075 48.9294C6.34804 47.9893 5.0375 46.7359 4.47805 46.0515C4.85946 45.0544 5.10678 43.9124 5.27421 42.7069C6.04448 44.5538 7.33454 46.1305 8.96075 47.2554V48.9294ZM16.9624 52.7097C15.771 53.8416 13.9048 53.8414 12.7138 52.7095L11.4148 51.4751C11.634 51.0644 11.7545 50.5989 11.7545 50.1111V48.6223C12.7289 48.9268 13.7647 49.0911 14.8382 49.0911C15.9103 49.0911 16.9456 48.9261 17.9217 48.6233L17.9215 50.1109C17.9215 50.5989 18.0418 51.0646 18.2612 51.4755L16.9624 52.7097ZM14.8385 46.2975C10.6676 46.2975 7.27457 42.9043 7.27457 38.7336C7.27457 37.9622 6.64919 37.3368 5.8778 37.3368C5.79958 37.3368 5.72322 37.3448 5.64854 37.3573C5.65264 37.2372 5.65655 37.1168 5.66065 36.9978C5.69175 36.0374 5.72173 35.1303 5.77704 34.3522C5.95546 31.8425 6.95834 29.5298 8.60094 27.8399C10.2583 26.1347 12.4733 25.1957 14.8382 25.1957C17.203 25.1957 19.4179 26.1347 21.0754 27.8399C22.718 29.5298 23.7209 31.8425 23.8993 34.3522C23.9544 35.1301 23.9846 36.0371 24.0163 36.9973C24.0191 37.0798 24.0219 37.1634 24.0246 37.2465C22.505 34.9051 20.158 33.1796 17.1255 32.2052C14.324 31.3052 11.9145 31.3609 11.8128 31.3635C11.447 31.3737 11.0999 31.5268 10.846 31.7901L8.32587 34.4038C7.79044 34.9591 7.80646 35.8434 8.36181 36.3788C8.91717 36.9142 9.80142 36.898 10.3368 36.3429L12.4339 34.1682C14.2398 34.2565 20.0498 34.9321 22.3094 39.9078C21.7408 43.5744 18.5893 46.2975 14.8385 46.2975ZM20.7149 48.9341L20.715 47.2682C22.34 46.1495 23.6319 44.5758 24.4027 42.7149C24.5701 43.9176 24.8173 45.057 25.1979 46.0519C24.6416 46.7298 23.325 47.9943 20.7149 48.9341ZM34.1563 26.274V22.8085C34.1563 22.5983 34.1088 22.3906 34.0173 22.2012C33.1186 20.34 32.6628 18.3651 32.6628 16.3314V13.3446C32.6628 7.52673 37.396 2.79373 43.2137 2.79373H62.7254V16.3316C62.7254 18.3653 62.2697 20.3401 61.3709 22.2014C61.2795 22.3908 61.232 22.5984 61.232 22.8087V26.7858C61.232 30.5684 59.7114 34.0769 56.9503 36.665C56.6055 36.988 56.2478 37.2908 55.8779 37.5729C55.8697 37.5785 55.8619 37.5847 55.8539 37.5904C53.2672 39.5543 50.099 40.5088 46.7903 40.2944C39.7057 39.8357 34.1563 33.6773 34.1563 26.274ZM42.0208 54.3791C42.0111 54.3888 41.9886 54.4117 41.943 54.4068C41.8975 54.4023 41.8797 54.3757 41.872 54.3642L37.5281 47.8481L38.926 46.3793L45.5159 50.8838L42.0208 54.3791ZM47.6941 48.9888L40.1302 43.8186V41.2113C42.0873 42.2693 44.2787 42.931 46.6095 43.0818C46.9777 43.1056 47.3436 43.1174 47.7085 43.1174C50.3793 43.1174 52.9497 42.479 55.2581 41.2671V43.8186L47.6941 48.9888ZM53.5162 54.3645C53.5086 54.3761 53.4907 54.4027 53.4453 54.4072C53.3997 54.413 53.3773 54.3889 53.3674 54.3794L49.8723 50.8843L56.4623 46.3797L57.8604 47.8485L53.5162 54.3645ZM79.0215 53.186L75.8517 50.0165C75.907 49.7653 75.9383 49.4902 75.9381 49.1868L75.938 48.5974C76.8175 48.886 77.7446 49.0574 78.7039 49.0861C78.8116 49.0894 78.9183 49.0909 79.0256 49.0909C80.0856 49.0909 81.1203 48.9307 82.1052 48.6251V49.1876C82.1052 49.4662 82.1402 49.7392 82.2061 50.0016L79.0215 53.186ZM84.2888 44.1622C82.8084 45.5988 80.8527 46.3575 78.7879 46.2938C74.7459 46.1726 71.4575 42.6123 71.4575 38.3577V35.7465C71.4575 35.5296 71.407 35.3158 71.31 35.1219L70.4472 33.3962C70.1311 32.764 69.9641 32.0563 69.9641 31.3493V31.2661C69.9641 27.9187 72.6874 25.1955 76.0346 25.1955H88.0791V30.9968C88.0791 31.9343 87.8574 32.8731 87.4382 33.7117L86.7331 35.1219C86.6361 35.3159 86.5856 35.5296 86.5856 35.7465V38.7334C86.5856 40.7969 85.7699 42.7248 84.2888 44.1622Z" fill="url(#paint1_linear)"/>
<path d="M87.9822 58.245C87.2108 58.245 86.5854 58.8704 86.5854 59.6418V68.6025C86.5854 69.3739 87.2108 69.9993 87.9822 69.9993C88.7536 69.9993 89.379 69.3739 89.379 68.6025V59.6418C89.379 58.8706 88.7536 58.245 87.9822 58.245Z" fill="url(#paint2_linear)"/>
<path d="M7.37065 60.0913C6.59926 60.0913 5.97388 60.7167 5.97388 61.4881V68.6025C5.97388 69.3739 6.59926 69.9993 7.37065 69.9993C8.14204 69.9993 8.76742 69.3739 8.76742 68.6025V61.4881C8.76742 60.7169 8.14204 60.0913 7.37065 60.0913Z" fill="url(#paint3_linear)"/>
<path d="M59.1359 16.8374C53.8532 11.5546 42.8002 12.5646 38.293 13.244C36.8733 13.4579 35.843 14.6593 35.843 16.1006V19.3184C35.843 20.0898 36.4684 20.7152 37.2398 20.7152C38.0112 20.7152 38.6366 20.0898 38.6366 19.3184V16.1004C38.6366 16.053 38.6678 16.0124 38.7096 16.006C40.5099 15.7347 44.0825 15.316 47.7839 15.5628C52.1396 15.8527 55.2945 16.9461 57.1607 18.8126C57.7062 19.3581 58.5906 19.3581 59.1359 18.8126C59.6814 18.2671 59.6814 17.3827 59.1359 16.8374Z" fill="url(#paint4_linear)"/>
<path d="M31.266 61.2319C30.4946 61.2319 29.8693 61.8573 29.8693 62.6287V68.6026C29.8693 69.374 30.4946 69.9994 31.266 69.9994C32.0374 69.9994 32.6628 69.374 32.6628 68.6026V62.6287C32.6628 61.8575 32.0374 61.2319 31.266 61.2319Z" fill="url(#paint5_linear)"/>
<path d="M64.1221 61.2319C63.3507 61.2319 62.7253 61.8573 62.7253 62.6287V68.6026C62.7253 69.374 63.3507 69.9994 64.1221 69.9994C64.8935 69.9994 65.5189 69.374 65.5189 68.6026V62.6287C65.5189 61.8575 64.8935 61.2319 64.1221 61.2319Z" fill="url(#paint6_linear)"/>
<defs>
<linearGradient id="paint0_linear" x1="82.1073" y1="32.8703" x2="80.3131" y2="27.9511" gradientUnits="userSpaceOnUse">
<stop stop-color="#F8A822"/>
<stop offset="1" stop-color="#FCD41F"/>
</linearGradient>
<linearGradient id="paint1_linear" x1="72.7066" y1="49" x2="29.2967" y2="-10.1322" gradientUnits="userSpaceOnUse">
<stop stop-color="#F8A822"/>
<stop offset="1" stop-color="#FCD41F"/>
</linearGradient>
<linearGradient id="paint2_linear" x1="88.7155" y1="66.473" x2="85.2781" y2="65.6561" gradientUnits="userSpaceOnUse">
<stop stop-color="#F8A822"/>
<stop offset="1" stop-color="#FCD41F"/>
</linearGradient>
<linearGradient id="paint3_linear" x1="8.10395" y1="67.0269" x2="4.73978" y2="66.0783" gradientUnits="userSpaceOnUse">
<stop stop-color="#F8A822"/>
<stop offset="1" stop-color="#FCD41F"/>
</linearGradient>
<linearGradient id="paint4_linear" x1="53.9158" y1="18.3075" x2="50.7464" y2="8.94722" gradientUnits="userSpaceOnUse">
<stop stop-color="#F8A822"/>
<stop offset="1" stop-color="#FCD41F"/>
</linearGradient>
<linearGradient id="paint5_linear" x1="31.9993" y1="67.3691" x2="28.7024" y2="66.3187" gradientUnits="userSpaceOnUse">
<stop stop-color="#F8A822"/>
<stop offset="1" stop-color="#FCD41F"/>
</linearGradient>
<linearGradient id="paint6_linear" x1="64.8554" y1="67.3691" x2="61.5585" y2="66.3187" gradientUnits="userSpaceOnUse">
<stop stop-color="#F8A822"/>
<stop offset="1" stop-color="#FCD41F"/>
</linearGradient>
</defs>
</svg>
