<svg width="25" height="20" viewBox="0 0 25 20" fill="none" xmlns="http://www.w3.org/2000/svg">
<path d="M9.16659 20C5.14581 20 1.96792 19.2936 0.44754 18.0624L0.417948 18.0383L0.391114 18.0113C0.0299489 17.648 -0.0884176 17.1713 0.0667086 16.7038L0.0808611 16.6649C0.269071 16.1916 0.730222 15.873 1.22997 15.87C2.25851 15.8521 3.15839 15.7288 3.97501 15.4895C2.67242 14.8803 1.76758 13.8256 1.22924 12.299C1.04819 11.8229 1.20442 11.295 1.62165 10.9803C1.72457 10.9025 1.84092 10.8437 1.96406 10.8043C1.24026 9.96416 0.705593 9.00809 0.406185 7.99695L0.396811 7.96553L0.390378 7.93337C0.288738 7.42198 0.516097 6.89617 0.932769 6.66977C1.10756 6.56885 1.29743 6.51655 1.48803 6.51212C1.28254 6.06707 1.13311 5.6102 1.04452 5.15056C0.798596 3.87679 1.00151 2.59987 1.64738 1.3553L1.79681 1.05479C1.91646 0.814339 2.14511 0.645415 2.40867 0.602352C2.67224 0.559474 2.94243 0.647078 3.13119 0.836887L3.40339 1.11097C5.55384 3.37796 7.48005 4.4536 10.8103 5.18955C10.959 3.90414 11.5117 2.70929 12.4033 1.76893C13.4644 0.650035 14.8813 0.022206 16.393 0.000767074H16.4029C17.5059 0.000767074 18.8741 0.633956 19.7016 1.08048C20.4114 0.846867 21.2666 0.485177 22.154 0.102787C22.5692 -0.0931208 23.0811 -0.00348378 23.4075 0.324754C23.7275 0.646524 23.8163 1.10025 23.6464 1.54123C23.5819 1.7218 23.5088 1.89904 23.4274 2.0724C23.5489 2.1284 23.66 2.20436 23.754 2.2988C24.0379 2.58435 24.1563 3.03124 24.0554 3.43747L24.0446 3.4761C23.7045 4.57799 23.0513 5.47547 22.1875 6.03879C22.0432 13.7644 16.2575 20 9.16659 20V20ZM1.80232 17.2712C3.23503 18.0862 5.96537 18.5793 9.16659 18.5793C12.2443 18.5793 15.1487 17.2506 17.3445 14.838C19.5584 12.4056 20.7775 9.17554 20.7775 5.74271V5.70409C20.7775 5.39322 20.9477 5.10953 21.2216 4.96352C21.7772 4.66762 22.2272 4.16362 22.5198 3.51916C22.218 3.56703 21.9112 3.44523 21.7232 3.19129C21.5046 2.89614 21.5023 2.49748 21.7171 2.19974C21.8331 2.03895 21.9382 1.87169 22.032 1.6987C21.2657 2.02231 20.538 2.31248 19.9063 2.50525C19.6768 2.57511 19.4209 2.54775 19.2112 2.43002C18.0865 1.79998 17.0391 1.42332 16.4075 1.42147C14.0771 1.45732 12.1824 3.46427 12.1824 5.89759C12.1824 6.14913 12.0713 6.38496 11.8782 6.54483C11.6848 6.70451 11.4334 6.76846 11.1878 6.71967C7.3479 5.95895 5.07247 4.81825 2.70624 2.42725C2.36714 3.24434 2.2745 4.06733 2.43128 4.87998C2.59027 5.70316 3.01319 6.52801 3.65446 7.26525C3.89818 7.54507 3.93053 7.94538 3.73497 8.26124C3.54014 8.57599 3.16978 8.7231 2.81377 8.62718C2.53549 8.55214 2.27965 8.45364 2.03703 8.32704C2.53127 9.40656 3.38134 10.405 4.44994 11.1413C4.75964 11.3547 4.88904 11.7526 4.76479 12.109C4.64036 12.4659 4.2928 12.6956 3.91711 12.6675C3.50779 12.637 3.14516 12.5588 2.81138 12.4271C3.41056 13.6541 4.36797 14.3292 5.84296 14.5872C6.19419 14.6488 6.46769 14.9276 6.52356 15.2812C6.57962 15.6348 6.40556 15.9852 6.09072 16.1532C4.83353 16.8233 3.45945 17.183 1.80232 17.2712V17.2712Z" fill="#34353F"/>
</svg>
