<svg width="33" height="20" viewBox="0 0 33 20" fill="none" xmlns="http://www.w3.org/2000/svg">
<path d="M16.3056 20C20.967 20 19.3049 17.0693 19.6647 16.2267C19.6594 15.5973 19.654 14.992 19.6755 14.624C19.9708 14.7067 20.6676 15.0573 22.1069 16.4467C24.3289 18.6733 24.8968 20 26.6918 20H29.9959C31.0431 20 31.5882 19.5693 31.8607 19.208C32.1239 18.8587 32.3816 18.2453 32.0997 17.2907C31.3626 14.992 27.0637 11.0227 26.7965 10.604C26.8368 10.5267 26.9012 10.424 26.9348 10.3707H26.9321C27.7806 9.25733 31.0189 4.43867 31.4955 2.51067C31.4969 2.508 31.4982 2.504 31.4982 2.5C31.756 1.62 31.5197 1.04933 31.2754 0.726667C30.9075 0.244 30.3221 0 29.5313 0H26.2273C25.121 0 24.2819 0.553333 23.8576 1.56267C23.1474 3.356 21.1523 7.044 19.6567 8.34933C19.611 6.5 19.6419 5.088 19.6661 4.03867C19.7144 1.992 19.8702 0 17.7314 0H12.5383C11.1984 0 9.91628 1.45333 11.3045 3.17867C12.5182 4.69067 11.7408 5.53333 12.0026 9.728C10.9823 8.64133 9.16712 5.70667 7.88362 1.956C7.52381 0.941333 6.97872 0.00133324 5.44415 0.00133324H2.14007C0.800176 0.00133324 0 0.726666 0 1.94133C0 4.66933 6.08054 20 16.3056 20V20ZM5.44415 2.00133C5.73549 2.00133 5.76503 2.00133 5.98118 2.61067C7.29557 6.45467 10.2439 12.1427 12.3974 12.1427C14.0152 12.1427 14.0152 10.496 14.0152 9.876L14.0138 4.94C13.9252 3.30667 13.3264 2.49333 12.9331 2L17.6428 2.00533C17.6455 2.028 17.616 7.46533 17.6562 8.78267C17.6562 10.6533 19.1519 11.7253 21.4866 9.37867C23.9502 6.61733 25.654 2.48933 25.7224 2.32133C25.8231 2.08133 25.9104 2 26.2273 2H29.5313H29.5448C29.5434 2.004 29.5434 2.008 29.5421 2.012C29.24 3.412 26.2581 7.87333 25.2606 9.25867C25.2445 9.28 25.2297 9.30267 25.215 9.32533C24.7759 10.0373 24.4188 10.824 25.2754 11.9307H25.2767C25.3546 12.024 25.5573 12.2427 25.8527 12.5467C26.771 13.488 29.9207 16.7067 30.1999 17.9867C30.0147 18.016 29.8133 17.9947 26.6918 18.0013C26.0272 18.0013 25.5076 17.0147 23.5246 15.028C21.7417 13.3053 20.5844 12.6013 19.5305 12.6013C17.4844 12.6013 17.6334 14.2507 17.6522 16.2453C17.6589 18.408 17.6455 17.724 17.6603 17.86C17.5408 17.9067 17.1984 18 16.3056 18C7.78695 18 2.23942 4.572 2.02595 2.00533C2.09979 1.99867 3.11612 2.00267 5.44415 2.00133V2.00133Z" fill="#34353F"/>
</svg>
