<svg width="15" height="10" viewBox="0 0 15 10" fill="none" xmlns="http://www.w3.org/2000/svg">
<path d="M7.59054 9.31034C9.76052 9.31034 8.98678 7.94607 9.15427 7.55379C9.15177 7.26083 9.14927 6.97903 9.15927 6.80772C9.29677 6.84621 9.62114 7.00945 10.2911 7.65621C11.3255 8.69276 11.5899 9.31034 12.4255 9.31034H13.9636C14.4511 9.31034 14.7048 9.10986 14.8317 8.94165C14.9542 8.77903 15.0742 8.49352 14.943 8.0491C14.5998 6.97903 12.5986 5.13124 12.4742 4.93634C12.493 4.90034 12.523 4.85255 12.5386 4.82772H12.5374C12.9324 4.30945 14.4398 2.06628 14.6617 1.16876C14.6623 1.16752 14.663 1.16566 14.663 1.16379C14.783 0.754138 14.673 0.488483 14.5592 0.338276C14.388 0.113586 14.1155 0 13.7473 0H12.2092C11.6942 0 11.3036 0.257586 11.1061 0.727448C10.7755 1.56228 9.84677 3.2791 9.15052 3.88676C9.12927 3.02586 9.14365 2.36855 9.1549 1.88007C9.1774 0.92731 9.2499 0 8.25428 0H5.83681C5.21307 0 4.6162 0.676552 5.26244 1.47972C5.82744 2.18359 5.46556 2.57586 5.58744 4.52855C5.11244 4.02269 4.26745 2.65655 3.66996 0.910552C3.50246 0.438207 3.24871 0.000620645 2.53435 0.000620645H0.996239C0.372496 0.000620645 0 0.338276 0 0.903724C0 2.17365 2.83059 9.31034 7.59054 9.31034V9.31034ZM2.53435 0.931655C2.66997 0.931655 2.68372 0.931655 2.78434 1.21531C3.39621 3.00476 4.7687 5.65262 5.77119 5.65262C6.5243 5.65262 6.5243 4.88607 6.5243 4.59745L6.52368 2.29966C6.48243 1.53931 6.20368 1.16069 6.02056 0.931034L8.21303 0.933517C8.21428 0.944069 8.20054 3.47524 8.21928 4.08848C8.21928 4.95931 8.91553 5.45834 10.0024 4.36593C11.1493 3.08048 11.9424 1.15883 11.9742 1.08062C12.0211 0.968897 12.0617 0.931034 12.2092 0.931034H13.7473H13.7536C13.753 0.932897 13.753 0.934758 13.7523 0.936621C13.6117 1.58834 12.2236 3.66517 11.7592 4.31007C11.7517 4.32 11.7449 4.33055 11.738 4.3411C11.5336 4.67255 11.3674 5.03876 11.7661 5.55393H11.7667C11.803 5.59738 11.8974 5.69917 12.0349 5.84069C12.4624 6.2789 13.9286 7.77724 14.0586 8.3731C13.9723 8.38676 13.8786 8.37683 12.4255 8.37993C12.1161 8.37993 11.8742 7.92062 10.9511 6.99579C10.1211 6.19386 9.58239 5.86614 9.09178 5.86614C8.13929 5.86614 8.20866 6.63393 8.21741 7.56248C8.22053 8.56924 8.21429 8.25083 8.22116 8.31414C8.16554 8.33586 8.00616 8.37931 7.59054 8.37931C3.62496 8.37931 1.04249 2.12834 0.943115 0.933517C0.977489 0.930414 1.45061 0.932276 2.53435 0.931655V0.931655Z" fill="white"/>
</svg>
